<?xml version="1.0" standalone="no"?>
<!DOCTYPE svg PUBLIC "-//W3C//DTD SVG 20010904//EN"
 "http://www.w3.org/TR/2001/REC-SVG-20010904/DTD/svg10.dtd">
<svg version="1.0" xmlns="http://www.w3.org/2000/svg"
 width="1352.000000pt" height="524.000000pt" viewBox="0 0 1352.000000 524.000000"
 preserveAspectRatio="xMidYMid meet">

<g transform="translate(0.000000,524.000000) scale(0.100000,-0.100000)"
fill="#000000" stroke="none">
<path d="M0 3884 l0 -1356 22 6 c13 3 83 9 155 13 95 4 133 10 133 18 0 7 12
15 28 18 37 8 167 -11 222 -31 34 -12 81 -16 199 -17 l155 0 16 -60 c43 -157
60 -256 65 -395 3 -80 15 -215 26 -300 16 -116 19 -179 14 -252 -4 -65 -1
-151 11 -265 l17 -169 -27 -41 c-32 -48 -28 -80 10 -89 30 -8 22 -24 -13 -24
-16 0 -27 7 -30 20 -8 29 -23 25 -23 -6 0 -19 -7 -28 -30 -37 -41 -16 -40 -39
1 -30 46 9 34 -14 -23 -46 -48 -27 -71 -24 -47 6 8 10 -1 5 -19 -10 -52 -42
-87 -32 -42 13 11 11 16 20 12 20 -12 0 -42 -34 -42 -46 0 -6 5 -15 12 -22 6
-6 12 -21 13 -32 2 -18 -4 -20 -73 -20 -70 0 -76 -2 -103 -31 -36 -39 -37 -62
-2 -78 l28 -13 -24 -12 c-20 -11 -21 -14 -6 -19 9 -4 98 -7 198 -7 114 0 197
-5 222 -12 61 -19 322 -15 430 6 121 24 197 44 209 56 7 7 6 34 -4 83 -7 39
-14 98 -16 129 -1 31 -5 62 -9 68 -4 7 6 23 23 38 17 15 33 41 37 59 6 32 3
38 -50 82 -12 10 -15 22 -10 48 10 53 24 287 25 402 l0 104 73 -9 c39 -5 111
-8 159 -7 l88 1 9 -36 c5 -21 12 -119 15 -219 4 -100 11 -228 16 -285 12 -116
4 -268 -16 -313 -22 -50 -60 -84 -131 -116 -38 -17 -75 -37 -85 -45 -9 -9 -22
-14 -30 -13 -7 1 -43 -1 -81 -5 -55 -7 -71 -13 -87 -34 -21 -26 -27 -62 -10
-62 6 0 10 -8 8 -17 -3 -16 11 -18 156 -21 137 -2 161 -5 172 -20 22 -30 206
-25 449 13 126 20 145 28 145 59 0 37 -50 208 -66 227 -18 20 -18 84 0 234 29
246 30 255 10 255 -16 0 -15 2 4 16 22 15 30 44 13 44 -5 0 -2 18 6 40 16 41
15 68 -14 268 -5 30 -4 32 28 34 19 0 58 0 87 -1 l52 -3 0 35 c0 30 4 35 28
40 15 3 43 2 62 -2 32 -6 35 -10 41 -51 4 -25 3 -175 -1 -333 -4 -158 -4 -304
0 -324 5 -20 8 -42 7 -47 -1 -7 22 -12 56 -14 31 -2 57 -7 57 -12 0 -6 -6 -10
-12 -11 -7 -1 -2 -5 12 -9 18 -6 7 -8 -41 -9 l-67 -1 -1 -92 c-2 -120 -19
-182 -52 -186 -13 -2 -40 -18 -59 -36 -19 -18 -47 -40 -62 -49 -16 -10 -28
-24 -28 -32 0 -9 -11 -21 -25 -27 -16 -7 -24 -17 -20 -26 4 -11 -4 -13 -43 -7
-43 6 -51 4 -75 -21 -32 -32 -36 -74 -7 -81 26 -7 26 -19 -1 -26 -12 -3 -18
-10 -14 -16 8 -14 128 -14 292 0 204 17 198 17 201 -8 3 -22 8 -23 90 -23 105
0 249 21 357 52 l80 23 -2 40 c-5 117 -16 168 -35 173 -18 4 -18 5 -1 17 17
13 17 15 -6 46 -20 27 -25 46 -26 109 -1 42 -5 82 -9 88 -4 7 -2 12 3 12 6 0
11 5 11 10 0 6 -35 10 -84 10 l-83 0 -7 -77 c-10 -105 -24 -147 -58 -166 -33
-19 -35 -32 -8 -47 30 -16 13 -33 -26 -26 -27 6 -35 3 -44 -15 -13 -24 -14
-23 25 -37 l30 -10 -29 -1 c-28 -1 -28 -2 -13 -19 10 -10 14 -22 10 -25 -10
-10 -66 -8 -83 3 -13 9 -12 12 5 26 14 10 16 17 8 22 -7 4 -15 39 -19 77 -4
39 -11 75 -16 82 -6 7 -8 65 -7 130 2 65 1 123 -2 128 -4 6 2 35 12 65 10 30
21 87 23 125 3 39 12 110 20 159 9 49 16 132 16 185 0 92 14 213 27 234 13 21
55 -103 73 -213 23 -143 41 -335 34 -355 -3 -7 0 -47 6 -87 7 -40 13 -82 13
-93 2 -17 10 -20 52 -23 66 -4 130 10 131 28 0 8 5 24 10 35 17 39 10 471 -10
594 -9 62 -14 117 -9 121 4 4 59 10 122 13 62 4 116 9 119 12 3 2 -10 105 -28
227 -46 313 -62 446 -60 497 0 24 -3 47 -8 50 -5 3 -12 20 -15 36 -3 17 -4 24
-1 18 10 -24 24 -13 24 17 l0 30 116 -2 116 -3 -5 -60 c-3 -33 -26 -172 -51
-310 -49 -263 -52 -295 -35 -295 6 0 9 -14 7 -32 -2 -18 -7 -32 -13 -31 -5 1
-11 -20 -11 -45 -1 -26 -7 -60 -14 -77 -16 -36 -17 -44 -22 -97 -3 -48 -8 -46
137 -67 108 -16 115 -19 115 -43 0 -40 10 -11 15 43 13 153 17 170 34 167 9
-2 15 -12 14 -23 -2 -11 -5 -56 -7 -100 -2 -44 -7 -88 -11 -97 -6 -15 -1 -18
34 -18 23 0 40 3 38 8 -1 4 3 8 8 9 6 1 9 -5 7 -13 -2 -10 7 -14 33 -14 28 0
35 4 33 16 -4 23 20 30 28 9 4 -9 20 -31 36 -48 38 -43 48 -84 47 -202 -1 -82
-14 -322 -20 -360 0 -5 0 -40 1 -76 l3 -66 49 -12 c27 -6 70 -11 95 -11 37 0
44 -3 39 -16 -3 -9 -6 -20 -6 -25 0 -4 -6 -7 -12 -4 -7 2 -49 6 -93 10 -79 6
-81 5 -82 -17 -4 -45 -26 -124 -49 -172 -21 -45 -21 -51 -7 -61 35 -26 -16
-47 -59 -24 -14 8 -23 8 -31 0 -7 -7 3 -17 36 -31 45 -20 59 -41 37 -55 -5 -3
-15 -3 -22 1 -7 4 -22 9 -34 10 -12 1 -34 10 -47 19 -24 15 -26 15 -47 -7
l-21 -23 40 -10 c46 -12 64 -25 33 -25 -11 0 -24 -5 -27 -10 -3 -6 -17 -10
-30 -10 -13 0 -27 -5 -30 -10 -8 -13 -55 -13 -55 1 0 6 -14 9 -32 7 -27 -2
-37 -10 -52 -41 -17 -36 -17 -39 -1 -58 12 -12 14 -19 6 -19 -7 0 -9 -5 -5
-12 16 -25 535 18 624 52 14 5 61 14 104 20 44 6 85 15 93 21 17 15 17 54 -2
126 -8 31 -15 70 -15 86 0 15 -9 40 -20 55 -14 19 -25 61 -35 137 -9 61 -20
111 -25 113 -5 2 -6 10 -3 18 3 9 -2 14 -16 14 -15 0 -21 6 -21 24 0 13 6 29
14 35 16 13 22 166 7 175 -5 3 -9 50 -9 103 0 58 -9 139 -21 198 -12 55 -21
117 -21 137 0 37 20 68 45 68 8 0 19 8 24 17 7 11 11 13 11 5 0 -9 10 -12 27
-10 20 2 29 10 33 28 3 14 12 27 20 28 8 2 40 10 72 18 31 8 69 15 85 15 35 1
115 -22 128 -37 18 -20 76 -34 145 -34 42 0 71 -5 77 -12 21 -28 37 -116 34
-198 -7 -243 -9 -615 -4 -687 l5 -83 62 -1 c33 -1 75 -5 91 -9 17 -4 -12 -5
-62 -2 -59 3 -93 1 -93 -5 0 -5 26 -11 58 -12 70 -2 122 -18 122 -37 0 -8 4
-14 8 -14 4 0 8 12 7 27 0 16 5 55 12 88 7 33 13 96 13 140 0 44 7 111 15 150
8 38 15 117 15 175 0 58 7 143 16 190 8 47 19 105 23 130 8 48 12 43 30 -35 6
-27 18 -74 26 -104 8 -30 16 -78 17 -105 2 -58 -18 -271 -33 -362 -13 -74 -9
-212 6 -224 18 -15 155 -25 155 -11 0 6 -12 12 -27 12 l-28 1 29 7 c25 5 33
16 54 71 13 36 25 85 27 110 2 25 15 89 29 144 22 82 26 121 26 230 0 73 -6
162 -14 201 -8 39 -17 102 -21 141 -7 69 -6 71 17 77 12 4 42 7 66 7 28 0 42
4 41 13 -3 25 2 33 21 34 14 1 20 -4 20 -18 0 -13 7 -19 23 -18 37 2 72 15 70
27 -2 6 -3 33 -4 59 -1 27 -6 53 -11 60 -6 7 -10 36 -10 65 1 54 -16 178 -43
321 -36 196 -77 425 -81 462 -5 39 -5 40 12 18 16 -22 54 -32 54 -15 0 5 12 7
28 5 15 -3 52 2 83 11 62 16 130 8 160 -20 20 -18 67 -10 87 14 9 12 17 14 30
6 9 -5 36 -9 60 -8 44 2 51 -3 30 -24 -9 -9 -9 -12 3 -12 10 0 21 16 29 43 7
23 16 55 21 71 5 16 9 42 9 57 0 16 2 29 3 29 2 0 39 -9 82 -20 86 -22 135
-26 135 -10 0 6 -17 11 -37 11 -31 2 -33 3 -10 6 15 3 27 11 27 19 0 10 7 13
25 8 16 -4 30 0 40 10 15 15 15 17 -2 22 -10 3 -27 11 -38 17 -11 6 -68 12
-130 13 -60 0 -119 4 -130 8 -24 8 -56 57 -80 122 -10 27 -30 60 -45 74 -55
52 -54 46 -15 209 49 200 67 228 184 284 131 62 177 94 209 142 l29 44 -16 64
c-14 60 -17 64 -44 64 -38 0 -47 16 -47 85 0 31 -3 65 -6 75 -5 13 -2 12 11
-5 9 -13 14 -29 11 -37 -5 -15 33 -70 42 -60 4 4 7 39 8 78 1 63 6 81 37 141
21 38 37 74 37 81 0 6 6 23 12 38 11 22 20 27 51 27 26 0 37 -4 37 -15 0 -23
34 -35 98 -35 56 0 62 -2 91 -35 17 -20 31 -40 31 -45 0 -4 12 -23 27 -40 22
-26 27 -44 31 -106 2 -41 8 -74 13 -74 12 0 31 39 25 49 -3 5 1 22 9 37 8 16
15 27 16 24 8 -31 7 -74 -2 -117 -9 -47 -14 -54 -42 -61 -28 -7 -34 -15 -53
-76 l-21 -68 22 -42 c12 -22 30 -43 40 -45 10 -1 39 -18 65 -36 26 -18 75 -47
111 -65 114 -56 138 -89 189 -265 18 -60 41 -129 53 -152 l20 -43 -31 -39
c-25 -31 -32 -49 -32 -83 0 -44 -32 -174 -51 -211 -10 -17 -13 -18 -26 -4 -10
10 -28 13 -58 9 -33 -3 -53 1 -78 15 -41 24 -108 41 -202 49 l-70 6 47 43 c27
24 68 53 93 65 26 12 44 25 41 27 -9 10 -118 -36 -238 -100 l-117 -63 62 -18
c34 -9 85 -22 112 -28 62 -12 76 -24 43 -37 -36 -14 -45 -31 -15 -31 27 0 70
33 59 45 -4 5 1 5 11 2 10 -4 21 -7 23 -7 13 0 1 -19 -16 -23 -11 -3 -20 -12
-20 -21 0 -20 14 -20 34 -1 12 12 27 13 88 5 40 -5 91 -8 113 -7 35 2 40 -1
43 -20 3 -21 22 -34 22 -15 0 13 291 7 332 -7 20 -7 89 -13 154 -14 79 -1 119
-6 121 -14 2 -6 -5 -50 -16 -98 -24 -100 -24 -98 -11 -90 15 9 12 -6 -4 -24
-8 -9 -17 -42 -20 -74 -3 -33 -11 -77 -17 -100 -21 -74 -40 -171 -44 -222 -2
-27 -12 -95 -23 -150 -23 -118 -39 -218 -52 -335 -6 -47 -13 -97 -16 -111 -5
-23 -2 -27 22 -33 18 -5 30 -3 32 3 5 16 19 13 39 -8 26 -27 70 -35 96 -16 12
8 16 15 9 15 -16 0 -16 27 1 33 9 4 9 8 0 14 -8 6 -9 21 -3 53 5 25 9 48 10
53 0 4 5 7 11 7 13 0 0 -172 -14 -181 -17 -12 30 -29 80 -30 26 -1 59 -4 73
-8 l25 -7 0 -172 c0 -143 3 -174 15 -182 19 -12 175 -13 218 -1 17 5 32 6 32
1 0 -14 -42 -20 -147 -20 -103 0 -136 -13 -67 -26 36 -7 148 0 190 12 17 5 22
0 26 -21 7 -36 -19 -45 -138 -45 -71 0 -95 -3 -92 -12 3 -7 15 -15 29 -19 23
-7 23 -7 2 -8 -31 -1 -30 -15 12 -150 19 -62 36 -132 37 -155 1 -24 -14 -88
-35 -156 -45 -140 -48 -186 -12 -200 14 -5 25 -14 25 -20 0 -6 10 -24 22 -40
l22 -30 138 0 c130 0 138 1 138 20 0 18 5 19 115 13 84 -4 115 -3 115 5 0 7
-6 12 -12 12 -8 1 -6 6 5 14 38 29 3 71 -53 61 -27 -5 -40 -2 -50 9 -7 9 -19
16 -27 16 -8 0 -28 7 -46 17 -31 16 -32 16 -9 26 21 10 21 11 -17 28 -32 14
-38 21 -34 41 5 26 -19 54 -52 60 -24 4 -38 63 -32 128 3 25 8 79 11 120 3 41
8 95 11 118 4 28 2 42 -4 38 -5 -4 -13 -1 -17 5 -3 6 0 15 7 20 12 7 11 9 -1
9 -9 1 -7 4 6 10 32 13 46 84 49 254 2 81 7 151 10 154 3 4 66 7 138 8 131 1
235 15 284 37 24 11 24 12 18 96 -3 47 -10 90 -15 95 -7 7 -10 4 -10 -7 0 -21
-16 -22 -24 -1 -11 28 -6 36 15 31 22 -6 22 -4 15 81 -11 153 -39 346 -70 497
-18 86 -20 120 -15 245 5 105 2 164 -8 214 -7 38 -12 71 -9 73 8 8 56 -9 50
-18 -3 -5 10 -7 30 -5 20 2 39 0 42 -6 4 -6 10 -5 16 3 6 9 7 -11 3 -56 -28
-313 -28 -364 6 -855 31 -459 38 -532 53 -582 19 -61 73 -337 81 -410 5 -42
14 -67 36 -95 28 -34 30 -41 23 -88 -4 -27 -8 -61 -9 -75 -1 -14 -5 -35 -9
-47 -9 -28 8 -60 36 -68 13 -4 34 -18 48 -30 42 -39 162 -73 286 -81 131 -8
161 -3 166 29 3 20 9 22 63 25 78 3 98 11 65 24 l-25 10 33 16 c35 17 35 24 5
88 -15 34 -49 54 -90 54 -14 0 -41 9 -59 21 -19 11 -39 17 -45 13 -7 -4 -9 -3
-6 3 4 6 0 19 -8 29 -18 24 -19 51 -2 61 16 10 47 85 47 114 0 11 -19 45 -41
76 l-42 56 37 126 c21 69 53 178 71 241 44 149 72 269 81 348 4 34 10 65 14
67 4 3 11 -50 14 -118 8 -144 28 -286 62 -457 35 -173 42 -197 71 -241 20 -30
22 -41 14 -58 -16 -30 -14 -53 14 -115 14 -31 25 -69 25 -84 0 -16 7 -37 15
-48 8 -10 15 -28 15 -40 0 -51 96 -83 247 -84 94 0 113 5 113 31 0 17 9 19 88
20 85 0 124 7 123 22 0 4 2 13 5 21 9 22 -14 83 -34 92 -9 4 -44 7 -77 8 l-60
1 3 37 c2 32 -1 39 -26 52 -24 12 -30 24 -36 62 -5 40 -3 50 14 66 16 15 19
27 14 61 -3 23 -13 59 -21 79 -14 34 -14 48 1 155 9 65 23 161 32 213 9 52 18
165 20 250 4 192 6 205 54 304 46 95 63 158 85 304 9 59 25 145 36 192 10 47
19 110 19 140 0 103 -3 100 120 100 79 0 111 -4 119 -14 23 -27 33 -189 28
-441 -6 -269 2 -379 38 -575 12 -69 23 -146 23 -171 0 -26 12 -91 27 -145 23
-86 25 -109 19 -174 -10 -94 -9 -105 19 -144 16 -23 23 -50 27 -106 3 -41 9
-74 15 -74 6 1 21 5 35 8 20 5 18 3 -7 -11 -38 -19 -45 -46 -10 -41 18 2 22
-2 22 -22 0 -21 -6 -26 -38 -31 -20 -3 -40 -8 -43 -11 -3 -3 -6 -32 -7 -64
l-2 -59 50 -13 c69 -18 204 -11 240 12 23 15 39 17 87 12 40 -5 58 -4 54 3 -5
7 32 11 106 13 98 3 113 5 113 20 0 9 3 19 7 23 10 10 -3 89 -17 104 -7 7 -27
16 -45 20 -40 8 -41 13 -43 151 -1 103 0 107 35 170 20 36 39 76 43 90 4 14
25 67 47 118 l40 94 -11 320 c-6 176 -9 323 -7 327 8 12 24 126 36 246 6 61
17 139 25 175 40 175 54 229 64 246 9 16 10 14 11 -16 0 -20 -4 -40 -9 -45
-11 -11 -33 -136 -26 -143 9 -9 189 -41 277 -49 l56 -5 11 -66 c19 -120 31
-272 31 -401 0 -149 21 -342 51 -467 11 -49 22 -113 24 -143 2 -29 9 -67 16
-83 14 -34 -3 -32 162 -11 30 4 47 2 47 -5 0 -6 -36 -13 -84 -17 -46 -4 -88
-10 -94 -14 -8 -5 -5 -32 11 -90 l21 -83 -27 -106 c-28 -109 -35 -182 -17
-182 5 0 12 -10 16 -22 11 -42 59 -69 149 -84 47 -8 109 -14 137 -12 46 3 53
6 56 25 3 21 9 23 67 23 58 0 63 2 69 24 3 14 2 36 -3 49 -8 22 -17 25 -71 29
-50 4 -66 9 -88 32 l-27 28 40 -7 40 -7 -42 31 c-31 23 -43 38 -43 57 0 17 -9
30 -30 42 -38 22 -42 42 -30 141 6 45 8 86 5 91 -3 5 -1 19 5 30 6 11 13 55
16 98 2 42 14 136 25 207 29 189 49 379 49 465 0 83 21 230 42 300 15 51 51
68 61 31 7 -27 46 -28 95 -2 66 35 172 53 238 41 107 -18 139 -26 160 -40 26
-16 74 -6 74 15 0 19 -46 38 -70 30 -28 -9 -74 5 -61 18 6 6 11 25 11 43 l0
31 68 -32 c37 -18 93 -38 125 -45 31 -6 59 -16 62 -21 4 -5 17 -6 30 -3 12 3
26 1 29 -5 4 -6 16 -11 27 -11 19 0 19 22 19 1510 l0 1510 -170 0 -170 0 0
-142 c-1 -79 -3 -190 -5 -248 -3 -58 -10 -244 -16 -415 -5 -170 -15 -384 -21
-475 -5 -91 -11 -329 -12 -530 -4 -833 -5 -845 -37 -725 -5 22 -41 139 -79
260 -42 135 -71 247 -75 290 -8 87 -42 233 -61 262 -21 33 -17 43 16 43 17 0
60 7 96 16 54 14 67 22 80 46 20 38 35 131 27 169 l-6 30 -23 -35 c-27 -39
-30 -56 -12 -74 18 -18 -16 -26 -75 -16 -92 14 -167 8 -193 -17 -35 -32 -112
-37 -190 -10 -33 11 -91 25 -129 31 -69 11 -171 5 -180 -11 -8 -11 44 -37 140
-69 43 -15 81 -32 83 -38 6 -18 -36 -23 -95 -11 -32 6 -71 14 -88 16 -16 3
-38 12 -47 20 -9 8 -35 19 -57 24 -34 7 -49 6 -79 -10 -21 -11 -64 -24 -97
-30 -81 -15 -90 -5 -110 124 -8 55 -15 114 -15 132 0 31 28 93 43 93 4 0 7 4
7 9 0 16 -38 23 -61 10 -20 -10 -21 -9 -15 12 4 13 16 80 26 147 31 191 59
240 160 269 30 8 67 22 82 29 15 8 42 16 60 18 36 4 54 24 70 78 6 21 14 38
17 38 4 0 15 -15 25 -34 10 -19 39 -57 65 -85 39 -42 53 -51 82 -51 44 0 74
21 99 71 22 43 44 50 60 20 16 -30 12 -41 -13 -41 -24 0 -67 -37 -67 -58 0 -8
9 -10 24 -6 36 9 66 -12 66 -44 0 -40 -26 -119 -56 -169 -14 -25 -23 -47 -21
-50 11 -11 67 81 82 135 25 88 22 84 44 72 16 -8 30 -5 65 15 24 14 51 22 59
19 7 -2 20 2 27 11 7 8 25 15 40 15 33 0 60 28 60 61 0 14 -19 47 -45 79 -46
56 -69 111 -81 190 -8 53 -34 107 -63 134 -33 30 -71 113 -71 155 0 59 -44
117 -120 161 -57 32 -65 40 -62 63 l3 27 -85 0 c-54 0 -86 -4 -88 -11 -3 -9
-9 -9 -25 0 -29 15 -73 14 -74 -1 0 -7 -2 -20 -3 -28 -2 -8 -6 -42 -10 -75
-10 -84 -24 -122 -46 -128 -11 -3 -20 -14 -20 -24 0 -10 -6 -25 -12 -32 -11
-11 -10 -15 4 -24 14 -10 14 -12 -7 -29 -13 -10 -28 -18 -34 -18 -10 0 -12 7
-15 51 -2 39 -64 76 -81 49 -4 -6 -12 -10 -18 -9 -31 4 -37 -3 -37 -41 0 -22
-4 -40 -10 -40 -20 0 -49 168 -50 288 l0 72 -2244 0 -2244 0 -7 -55 c-3 -30
-4 -59 0 -65 3 -5 -1 -10 -9 -10 -12 0 -16 -10 -16 -40 0 -22 5 -40 10 -40 6
0 10 -16 10 -35 0 -19 -4 -35 -9 -35 -6 0 -12 -19 -14 -42 -2 -26 -4 -12 -5
35 -1 43 -6 77 -12 77 -12 0 -13 77 -1 82 13 5 25 128 13 128 -6 0 -13 -12
-15 -27 l-4 -28 -2 28 -1 27 -403 0 -403 0 1 -27 c0 -14 -6 -28 -14 -31 -10
-3 -12 3 -6 27 l7 31 -3266 0 -3266 0 0 -1356z m12490 1286 c0 -19 -11 -26
-23 -14 -8 8 3 34 14 34 5 0 9 -9 9 -20z m-11104 -22 c5 -8 2 -9 -10 -5 -10 4
-36 2 -58 -4 -42 -11 -63 -5 -38 11 21 14 97 12 106 -2z m11078 -55 c-9 -65
-14 -67 -14 -5 0 30 4 52 11 52 7 0 8 -16 3 -47z m-10756 -48 c7 -15 8 -25 2
-25 -6 0 -10 7 -10 15 0 8 -4 15 -10 15 -5 0 -10 5 -10 10 0 19 17 10 28 -15z
m10799 -63 c9 -11 10 -19 2 -29 -9 -10 -7 -13 10 -13 11 0 21 -4 21 -10 0 -13
-47 -13 -56 1 -3 6 -17 8 -30 5 -19 -5 -24 -2 -24 14 0 11 6 29 12 40 14 22
45 19 65 -8z m-6159 -14 c-7 -19 -38 -22 -38 -4 0 10 9 16 21 16 12 0 19 -5
17 -12z m-4948 -40 c0 -4 15 -15 33 -24 75 -38 99 -77 87 -141 -6 -36 -4 -42
12 -46 10 -3 22 2 27 10 11 21 43 10 35 -12 -3 -8 -12 -15 -20 -15 -8 0 -22
-9 -31 -20 -10 -11 -23 -20 -30 -20 -7 0 -13 -9 -13 -20 0 -18 -7 -20 -65 -20
-54 0 -67 3 -77 20 -7 11 -18 20 -25 20 -6 0 -24 5 -39 10 -25 10 -26 12 -9
24 25 18 10 36 -30 36 -28 0 -35 -5 -44 -31 -13 -38 -35 -33 -39 9 -3 26 1 34
22 44 14 6 37 31 51 54 l26 43 40 -39 c23 -22 48 -40 56 -40 22 0 93 42 93 54
0 6 -16 23 -34 39 -37 28 -69 33 -124 18 -28 -8 -82 0 -101 15 -5 4 22 30 39
37 21 8 160 4 160 -5z m1025 -33 l30 -20 -64 -3 c-42 -2 -75 2 -96 12 -46 22
-55 20 -100 -19 -22 -19 -43 -35 -47 -35 -14 0 -8 17 12 35 11 10 20 24 20 31
0 20 19 23 120 21 77 -2 102 -6 125 -22z m797 -4 c41 3 135 -37 149 -62 8 -17
6 -18 -23 -13 -18 3 -46 9 -63 13 -42 11 -108 8 -112 -5 -2 -6 12 -25 32 -43
28 -24 33 -33 20 -37 -8 -3 -15 -15 -15 -25 0 -26 35 -94 73 -142 l30 -39 -17
-56 c-9 -31 -18 -65 -19 -75 -1 -10 -7 -21 -13 -25 -6 -4 -16 -17 -23 -29 -7
-14 -21 -23 -36 -23 -13 0 -26 -6 -29 -12 -5 -10 -7 -10 -12 0 -3 7 -12 18
-19 25 -6 6 -10 20 -7 30 3 12 -2 20 -16 24 -15 3 -21 12 -19 27 2 18 -4 21
-40 23 -37 2 -43 -1 -43 -19 0 -13 -5 -18 -14 -15 -8 3 -16 -2 -19 -14 -7 -25
14 -79 30 -79 7 0 13 -2 13 -4 0 -2 3 -11 6 -20 12 -31 -16 -15 -45 25 -38 51
-71 208 -52 239 8 12 14 11 35 -9 31 -29 67 -23 84 14 26 57 9 77 -64 77 -19
0 -34 1 -34 3 0 10 46 105 62 128 33 46 10 45 -33 -1 -44 -47 -52 -51 -41 -22
10 28 81 110 95 110 7 0 35 11 62 24 35 16 55 21 67 14 10 -5 33 -8 50 -7z
m4185 -63 c-2 -13 -4 -5 -4 17 -1 22 1 32 4 23 2 -10 2 -28 0 -40z m5073 7 c0
-33 68 -45 116 -20 40 20 52 5 31 -40 -13 -28 -22 -35 -46 -35 -16 0 -34 7
-41 15 -10 12 -16 13 -27 4 -8 -7 -33 -10 -66 -6 -42 4 -58 1 -77 -14 -26 -19
-76 -27 -65 -9 3 6 2 10 -3 10 -13 0 -24 72 -13 83 5 5 22 2 39 -7 45 -23 80
-20 105 9 25 28 47 33 47 10z m-2165 -15 c-3 -5 -16 -10 -28 -10 -16 0 -18 -3
-10 -11 9 -9 3 -18 -24 -36 -35 -24 -36 -24 -54 -4 -16 17 -16 20 -3 25 9 3
24 6 35 6 10 0 19 5 19 11 0 8 -16 10 -47 7 -43 -5 -45 -4 -21 6 35 15 142 20
133 6z m1039 4 c30 -12 5 -24 -49 -24 -45 0 -57 -4 -72 -24 -21 -26 -70 -40
-65 -18 1 6 -4 12 -10 12 -29 1 70 43 117 50 27 4 53 8 57 9 3 0 13 -2 22 -5z
m-4496 -19 c229 0 244 -1 258 -19 19 -27 18 -43 -5 -56 -21 -10 -499 -14 -536
-4 -11 3 -28 16 -38 29 -17 24 -17 25 4 46 16 16 26 19 47 13 15 -5 136 -9
270 -9z m5836 -93 c-18 -79 -20 -83 -81 -109 -17 -7 -16 13 3 64 9 24 23 43
30 43 21 0 44 30 44 59 0 15 3 31 7 35 15 15 14 -17 -3 -92z m-11047 72 c-3
-3 -12 -4 -19 -1 -8 3 -5 6 6 6 11 1 17 -2 13 -5z m467 -19 c4 -14 30 -42 61
-65 55 -40 63 -60 24 -60 -21 0 -26 25 -6 33 6 3 1 6 -13 6 -15 1 -31 -4 -38
-11 -9 -9 -12 -9 -12 0 0 7 5 12 10 12 6 0 10 5 10 11 0 6 -7 9 -15 5 -8 -3
-15 -2 -15 3 0 4 -11 13 -25 19 -27 12 -33 40 -13 60 18 18 25 15 32 -13z
m1296 -5 c0 -8 -50 -24 -56 -17 -2 2 4 13 12 26 13 17 19 20 30 10 8 -6 14
-15 14 -19z m7075 -10 c5 -8 11 -8 19 -1 16 14 26 4 26 -26 0 -26 -12 -30 -30
-8 -7 8 -19 15 -26 15 -8 0 -14 7 -14 15 0 17 16 20 25 5z m1040 -10 c3 -5 1
-10 -4 -10 -6 0 -11 5 -11 10 0 6 2 10 4 10 3 0 8 -4 11 -10z m-9865 -26 c0
-7 -13 -28 -28 -45 -22 -24 -33 -30 -50 -25 -32 11 -27 30 13 49 19 9 35 23
35 32 0 9 6 12 15 9 8 -4 15 -12 15 -20z m7780 11 c0 -8 5 -15 10 -15 6 0 5
-8 -2 -20 -7 -11 -17 -20 -21 -20 -5 0 -18 -11 -29 -25 -11 -14 -29 -30 -40
-36 -18 -10 -19 -8 -13 13 l8 23 -24 -20 c-13 -11 -30 -26 -38 -33 -8 -8 -22
-11 -32 -9 -21 6 -70 -49 -90 -99 l-11 -29 -11 23 c-17 38 17 122 66 163 43
36 133 90 139 84 2 -3 17 0 34 4 43 14 54 13 54 -4z m-2040 -30 c0 -19 -4 -35
-10 -35 -5 0 -10 16 -10 35 0 19 5 35 10 35 6 0 10 -16 10 -35z m2190 13 c44
-10 116 -89 141 -156 l10 -27 -28 28 c-33 31 -43 34 -43 11 0 -13 -2 -13 -14
-2 -7 8 -17 24 -20 36 -4 12 -15 22 -24 22 -15 0 -15 2 -2 10 13 9 11 14 -13
35 -15 14 -39 25 -53 25 -13 0 -24 4 -24 9 0 5 -8 12 -17 14 -10 2 2 3 27 1
25 -1 52 -4 60 -6z m-5226 -17 c32 -13 37 -46 5 -36 -12 4 -24 3 -28 -3 -4 -7
-36 -7 -92 -1 -50 5 -99 5 -118 -1 -17 -5 -31 -7 -31 -5 0 7 71 47 98 56 32
10 127 4 166 -10z m3014 -66 c0 -15 -3 -13 -12 9 -8 16 -11 39 -8 50 6 18 7
17 13 -9 4 -16 7 -39 7 -50z m3180 29 c-10 -10 -28 6 -28 24 0 15 1 15 17 -1
9 -9 14 -19 11 -23z m-1097 -15 c-19 -16 -39 -29 -45 -29 -6 1 3 11 19 25 17
13 35 28 40 33 6 5 12 8 15 5 2 -2 -11 -17 -29 -34z m-4993 -19 c10 -16 9 -21
-7 -30 -11 -5 -27 -7 -35 -4 -22 8 -20 -6 4 -31 16 -17 22 -41 27 -110 l6 -87
-39 20 c-71 38 -109 43 -167 20 -21 -8 -34 -8 -52 2 -14 7 -44 14 -69 14 -41
1 -43 2 -30 18 9 9 30 23 47 32 18 8 26 16 19 16 -23 0 -69 -28 -95 -60 -14
-16 -29 -30 -33 -30 -3 0 -4 22 -2 50 6 63 59 130 131 167 48 24 56 25 107 16
30 -6 64 -14 75 -17 15 -5 24 0 37 24 15 27 20 29 41 19 13 -6 28 -19 35 -29z
m6588 -8 c-14 -15 -15 -13 -3 17 8 23 13 28 15 16 2 -10 -3 -25 -12 -33z m303
-19 c46 -22 87 -83 95 -140 16 -121 17 -123 38 -123 11 0 22 8 25 19 4 16 8
17 18 8 9 -9 10 -20 2 -42 -15 -46 -27 -56 -61 -53 -27 3 -32 -1 -47 -42 -10
-25 -22 -44 -28 -42 -6 1 -11 -3 -11 -9 0 -6 -6 -9 -14 -6 -8 3 -30 -2 -49
-12 -35 -18 -77 -20 -134 -7 -29 7 -32 5 -38 -24 -11 -52 63 -170 108 -170 10
0 40 10 66 23 25 13 58 27 73 30 21 6 30 16 39 49 6 23 8 55 5 72 -6 31 -6 30
37 -16 31 -34 51 -48 70 -48 15 0 44 -9 64 -20 21 -11 50 -20 64 -20 37 0 72
-31 113 -98 35 -58 122 -269 133 -323 3 -16 10 -32 14 -35 5 -3 9 -17 9 -31 0
-21 -2 -24 -15 -13 -12 10 -15 10 -15 -4 0 -9 4 -16 9 -16 6 0 9 -34 8 -77
l-2 -78 -85 -3 c-115 -3 -133 -8 -127 -32 3 -11 -1 -24 -8 -30 -17 -14 -129
-15 -175 0 -38 11 -233 54 -290 64 l-35 6 25 -20 c14 -10 50 -29 80 -40 60
-23 128 -77 114 -90 -15 -14 -123 -30 -145 -21 -20 7 -20 9 12 29 l34 22 -85
1 c-47 1 -88 1 -93 0 -49 -8 -168 -8 -173 0 -3 6 -16 14 -29 19 -13 5 -29 21
-37 37 -12 25 -24 30 -128 54 -85 20 -137 39 -198 73 -52 29 -101 49 -130 52
-59 7 -163 43 -179 61 -15 20 -22 5 -29 -65 l-7 -60 40 11 c49 13 87 4 120
-29 l25 -25 -21 -21 c-14 -13 -47 -23 -90 -30 -63 -9 -69 -12 -82 -42 -10 -21
-24 -34 -47 -41 -31 -9 -33 -12 -29 -42 7 -39 35 -83 53 -83 7 0 21 11 30 25
9 14 20 23 24 20 4 -2 24 5 46 15 21 11 44 20 51 20 6 0 16 6 20 14 13 22 85
56 118 56 17 0 50 -9 73 -20 50 -24 54 -25 50 -4 -2 10 2 18 7 20 25 9 35 -16
41 -107 8 -113 4 -124 -85 -219 -43 -45 -63 -61 -69 -53 -6 10 -17 10 -43 3
-44 -13 -154 -4 -248 22 -40 11 -84 18 -97 15 -13 -2 -21 0 -18 4 2 4 -7 14
-22 22 l-27 14 36 7 c29 5 39 14 56 49 26 54 26 53 -1 60 -13 3 -48 12 -78 19
-70 18 -118 8 -116 -24 2 -41 -42 -46 -123 -14 -38 15 -79 36 -91 46 -13 11
-26 17 -30 15 -4 -3 -24 2 -44 10 -38 16 -84 19 -135 9 -41 -8 -39 -16 7 -37
48 -23 119 -84 108 -94 -5 -4 -11 -2 -14 6 -3 10 -6 10 -12 1 -5 -8 -13 -9
-21 -4 -16 10 -129 32 -171 33 -15 1 -40 -10 -57 -24 -27 -24 -37 -26 -108
-23 -43 1 -80 5 -83 8 -3 3 -15 14 -27 24 -23 19 -23 19 -23 -8 0 -49 54 -91
155 -120 50 -14 108 -26 130 -26 53 0 181 21 294 50 24 6 53 8 65 4 20 -7 19
-8 -9 -20 l-30 -13 37 -1 c20 0 48 5 62 11 20 9 34 7 82 -15 68 -31 67 -42 -2
-21 -63 19 -64 19 -64 -5 0 -17 -7 -20 -47 -20 -27 0 -54 -4 -62 -9 -7 -5 -25
-6 -40 -2 -14 4 -37 5 -51 1 -24 -6 -24 -6 -4 -12 20 -5 21 -9 13 -53 -5 -27
-10 -49 -12 -50 -1 -1 -37 0 -79 3 l-78 4 6 53 6 52 -68 13 c-38 7 -127 14
-199 16 -71 1 -143 7 -158 13 -16 6 -34 11 -42 11 -7 0 -20 7 -28 15 -13 12
-25 11 -95 -11 -53 -17 -83 -32 -87 -43 -14 -46 -117 -110 -127 -79 -3 9 -12
9 -38 -2 -18 -8 -28 -16 -22 -18 20 -6 2 -22 -26 -23 -26 0 -26 0 -4 -9 17 -8
21 -15 17 -35 -3 -14 -7 -36 -10 -49 -5 -25 -40 -36 -119 -36 l-38 0 7 48 c4
26 12 50 18 55 18 11 -9 25 -73 38 -79 16 -80 17 -74 34 5 11 -1 15 -22 16
-16 0 -56 6 -89 13 -45 9 -62 18 -70 34 -10 23 -49 30 -60 11 -4 -6 -13 -8
-21 -5 -8 3 -14 2 -14 -3 0 -13 42 -29 113 -41 37 -7 70 -17 73 -22 4 -6 -5
-8 -24 -3 -18 3 -33 2 -37 -4 -3 -6 -11 -11 -16 -11 -6 0 -7 5 -3 12 4 6 3 8
-3 5 -6 -4 -30 0 -54 9 -24 8 -53 13 -65 10 -15 -4 -33 5 -60 28 -34 30 -37
37 -27 53 39 57 41 65 29 152 -9 66 -15 86 -31 95 -59 33 -105 69 -105 82 0 8
-5 22 -11 32 -9 15 -7 33 9 83 12 35 24 87 28 114 3 28 18 86 31 130 29 93 62
133 136 165 41 18 54 20 75 10 23 -10 29 -7 64 27 25 24 37 44 34 56 -7 27 6
21 75 -39 35 -31 78 -63 96 -72 29 -14 34 -14 57 2 20 12 31 14 45 6 29 -15
30 -14 33 42 4 66 19 71 82 27 44 -31 57 -49 36 -49 -5 0 -7 -6 -4 -14 3 -9
-5 -21 -20 -31 -32 -21 -33 -43 -5 -90 26 -43 43 -34 29 15 -13 46 -13 60 3
60 18 0 67 24 67 33 0 13 48 7 79 -10 17 -10 35 -29 39 -43 56 -158 141 -350
154 -350 4 0 9 8 9 18 1 9 3 32 5 50 2 18 -2 45 -10 60 -7 15 -19 52 -26 83
-11 48 -10 66 5 125 23 91 39 122 83 161 20 18 31 33 25 33 -7 0 -13 -4 -13
-10 0 -5 -4 -10 -9 -10 -16 0 -23 38 -16 80 6 34 11 40 31 40 13 0 24 -4 24
-8 0 -12 96 2 114 17 8 7 27 34 41 59 25 45 26 48 11 80 -9 18 -16 39 -16 48
0 8 -11 19 -26 24 -30 12 -64 83 -67 140 -1 41 13 67 32 56 15 -9 14 -47 0
-44 -6 2 -14 -3 -17 -11 -3 -10 0 -12 13 -7 14 5 16 2 12 -16 -6 -22 7 -48 24
-48 5 0 9 9 9 19 0 11 4 22 9 25 4 3 11 24 15 46 6 40 48 82 64 65 4 -4 1 -10
-5 -12 -22 -8 -14 -23 11 -23 14 0 28 -4 31 -10 3 -5 -3 -10 -14 -10 -29 0
-36 -18 -15 -41 30 -34 124 -18 124 21 0 11 5 20 10 20 20 0 10 20 -17 34
l-28 15 33 1 c18 0 44 7 57 16 22 14 28 14 85 -8 41 -16 62 -29 65 -43 7 -29
13 -76 14 -104 1 -20 4 -22 14 -13 15 16 17 63 2 55 -5 -3 -4 0 3 8 6 7 12 21
12 31 0 10 5 18 11 18 23 0 4 -102 -27 -149 -16 -25 -44 -72 -62 -105 -40 -74
-69 -102 -122 -116 -47 -13 -93 -3 -157 34 -24 14 -43 21 -43 17 0 -15 68 -96
121 -144 47 -43 57 -48 87 -43 19 3 41 14 49 26 14 20 14 20 39 -8 l25 -27 -6
55 c-4 30 -15 67 -26 82 -23 33 -23 38 -5 38 8 0 41 -30 73 -66 77 -87 133
-116 133 -68 0 51 83 149 160 189 25 13 53 33 62 44 10 12 24 21 31 21 7 0 36
24 64 54 46 50 50 58 44 88 -6 30 -10 33 -39 30 -25 -3 -33 2 -45 25 -24 47
-29 80 -12 80 8 0 15 -8 15 -17 0 -18 46 -48 56 -37 4 4 1 13 -6 22 -10 12
-10 15 3 15 10 0 16 15 19 52 4 42 11 56 34 75 16 13 34 23 39 22 6 0 4 -3 -2
-6 -7 -2 -13 -12 -13 -20 0 -11 8 -14 30 -11 40 6 38 2 -7 -18 l-38 -15 52
-26 52 -26 33 20 c18 10 39 30 45 44 11 21 10 26 -8 42 -12 9 -29 17 -40 17
-10 0 -20 4 -23 9 -9 14 54 21 109 13 l50 -8 -27 -18 c-23 -15 -27 -23 -22
-45 16 -63 63 -85 104 -46 l27 26 11 -28 c6 -15 13 -50 16 -76 5 -43 4 -50
-15 -54 -11 -3 -26 -20 -34 -37 l-13 -31 5 39 6 39 -36 -7 c-33 -6 -36 -5 -39
19 -2 14 -6 25 -10 25 -5 0 -24 0 -44 0 -34 0 -36 -2 -30 -25 4 -17 2 -25 -6
-26 -18 -2 -19 -2 -52 7 -25 6 -28 4 -25 -17 3 -27 -21 -99 -33 -99 -5 0 -17
5 -28 12 -10 7 -23 9 -27 4 -10 -10 69 -82 156 -144 36 -25 76 -57 88 -71 11
-14 24 -24 27 -21 9 10 11 144 2 170 -7 21 -1 18 38 -20 25 -24 49 -52 52 -62
3 -10 20 -26 37 -35 30 -15 31 -15 18 0 -20 25 0 21 39 -8 19 -14 41 -25 50
-25 9 0 35 -16 57 -35 23 -19 46 -35 51 -35 6 0 23 15 39 34 16 19 73 57 136
91 80 42 111 65 119 84 5 14 16 38 23 53 12 24 12 34 -2 73 -11 34 -19 44 -32
41 -22 -7 -38 4 -50 37 -19 51 -8 103 14 67 11 -18 25 -10 25 14 0 48 52 170
84 199 29 26 34 27 101 22 39 -4 85 -14 104 -22z m-4238 -12 c17 -21 18 -26 6
-45 -11 -16 -26 -22 -68 -23 -105 -5 -179 -15 -179 -24 0 -5 12 -9 28 -9 28 0
52 -13 107 -58 l30 -25 -30 5 c-16 3 -39 9 -50 13 -20 8 -20 8 -1 -13 25 -29
16 -28 -61 9 -55 26 -72 30 -116 25 -81 -9 -100 -12 -129 -26 -29 -14 -38 -40
-14 -40 8 0 17 -6 20 -12 3 -7 3 -3 1 8 -5 19 0 22 41 29 26 4 53 13 61 21 19
19 39 19 24 0 -9 -11 -4 -15 26 -22 21 -4 45 -6 53 -5 8 2 12 -1 7 -5 -4 -4
-26 -7 -48 -5 -26 1 -38 -2 -34 -9 4 -6 -3 -10 -17 -10 -18 0 -20 2 -8 10 20
13 0 12 -41 -2 -19 -6 -38 -18 -42 -25 -5 -8 -18 -13 -30 -12 -29 4 -66 -21
-60 -38 4 -11 -6 -13 -53 -8 -32 3 -59 7 -61 8 -1 2 7 22 18 45 12 23 22 53
23 67 0 14 6 25 11 26 6 1 25 2 43 4 18 1 52 12 75 23 23 11 58 27 77 35 35
16 34 16 -57 16 -137 1 -179 26 -129 76 l25 25 266 -3 267 -2 19 -24z m-5791
10 c0 -12 -39 -25 -48 -16 -7 7 17 25 36 25 6 0 12 -4 12 -9z m824 -19 c12
-37 96 -67 122 -43 5 5 23 12 40 15 26 6 34 3 48 -19 12 -18 13 -25 4 -25 -10
0 -9 -3 1 -9 18 -12 3 -57 -32 -94 -27 -30 -42 -35 -33 -12 8 21 -3 45 -20 45
-8 0 -32 11 -54 25 -22 14 -40 21 -40 16 0 -6 5 -13 10 -16 15 -10 12 -35 -5
-35 -9 0 -15 9 -15 21 0 20 -4 21 -46 14 -40 -6 -46 -4 -51 14 -4 16 -9 19
-23 11 -27 -15 -30 -13 -30 20 0 28 3 30 34 30 28 0 38 6 53 30 20 34 29 37
37 12z m381 -11 c3 -6 -3 -9 -14 -8 -11 0 -17 5 -15 9 7 11 22 10 29 -1z
m5925 -10 c19 -11 50 -26 68 -35 19 -9 32 -21 29 -28 -2 -7 11 -33 30 -57 43
-57 43 -76 -1 -25 -24 29 -49 44 -88 57 -70 22 -112 23 -104 2 3 -10 -3 -17
-20 -21 -30 -8 -44 3 -24 17 31 21 -55 -3 -97 -27 -24 -14 -43 -21 -43 -15 0
13 55 58 80 66 11 3 20 11 20 17 0 6 -7 7 -17 3 -10 -4 -31 -11 -48 -15 -70
-18 -109 -48 -134 -99 -22 -45 -46 -69 -58 -57 -21 20 111 164 182 199 70 34
73 35 135 36 36 1 67 -5 90 -18z m-3016 1 c3 -5 31 -14 63 -21 97 -22 106 -26
124 -57 26 -43 23 -46 -16 -20 -28 19 -43 23 -82 19 -28 -3 -56 -13 -68 -24
-17 -17 -18 -23 -7 -51 10 -28 10 -35 -4 -45 -19 -14 -12 -43 16 -68 11 -10
20 -23 20 -30 0 -6 18 -26 40 -44 l40 -32 0 -79 c0 -44 3 -80 7 -80 14 0 83
53 83 63 0 8 3 8 11 0 26 -26 -39 -94 -77 -79 -9 3 -20 -9 -32 -37 -11 -23
-32 -54 -48 -69 -39 -36 -125 -68 -183 -68 -44 0 -50 -3 -61 -30 -12 -28 -8
-103 7 -168 5 -22 6 -22 25 -5 11 10 28 17 38 15 10 -2 20 5 24 14 3 9 12 14
20 11 18 -7 48 27 121 133 32 47 67 93 77 103 10 10 18 23 18 30 0 7 17 29 36
50 27 29 39 36 48 27 8 -8 6 -15 -11 -28 -44 -34 -78 -162 -43 -162 9 0 6 -5
-9 -13 -13 -6 -22 -15 -20 -19 2 -3 -7 -18 -20 -32 -14 -14 -21 -29 -18 -33 4
-3 2 -13 -5 -20 -9 -11 -9 -17 3 -24 12 -7 12 -9 -1 -9 -13 0 -13 -1 0 -10 8
-5 18 -10 21 -10 3 0 25 31 50 70 41 65 59 83 59 61 0 -5 33 -43 74 -84 90
-91 102 -112 127 -232 23 -108 21 -117 -40 -275 -21 -52 -51 -139 -66 -192
-22 -74 -34 -100 -52 -109 -31 -17 -70 2 -79 36 -8 33 -34 29 -52 -7 -10 -21
-21 -27 -62 -33 -27 -4 -54 -4 -59 0 -6 3 -34 -1 -63 -10 -30 -9 -66 -13 -85
-9 -24 5 -33 3 -33 -7 0 -11 -2 -11 -10 1 -8 13 -10 12 -10 -2 0 -10 -7 -18
-16 -18 -14 0 -15 2 -3 17 34 43 57 58 90 61 21 2 40 -1 44 -7 9 -15 42 -14
52 2 4 6 24 20 43 30 20 10 41 27 48 37 14 23 10 24 -36 11 -28 -8 -36 -6 -59
15 -15 13 -29 23 -32 21 -3 -2 -21 -9 -38 -16 -18 -7 -33 -19 -33 -27 0 -8 -6
-14 -12 -15 -7 0 -4 -4 7 -9 18 -7 18 -9 -9 -19 -32 -13 -78 -6 -111 15 -11 7
-44 22 -73 33 -53 21 -53 21 -47 1 9 -27 4 -26 -50 19 -30 25 -53 37 -66 34
-10 -3 -16 -10 -13 -15 6 -9 90 -49 177 -84 45 -18 48 -21 43 -49 l-6 -30 20
25 c17 21 21 23 30 10 14 -21 12 -30 -4 -24 -7 3 -21 -6 -30 -20 -18 -28 -42
-36 -32 -11 6 17 -9 21 -19 5 -10 -16 -116 -12 -129 4 -6 7 -40 24 -76 36 -36
12 -69 25 -75 30 -5 4 -26 11 -45 15 -101 20 -110 24 -110 55 0 16 12 66 26
111 l26 81 -26 27 -26 27 32 34 c68 75 139 177 154 222 8 26 20 50 25 54 5 3
21 24 35 45 14 22 33 42 42 45 50 16 82 40 82 60 0 12 10 29 23 37 18 13 19
16 5 16 -18 1 -26 21 -8 21 5 0 7 7 3 16 -5 13 -2 15 15 9 31 -9 28 3 -3 15
-14 5 -25 17 -24 27 0 11 3 13 6 6 7 -18 23 -16 46 5 19 16 19 16 13 -5 -5
-14 -3 -23 3 -23 7 0 7 -8 -1 -25 -6 -14 -8 -28 -5 -31 11 -12 77 46 77 67 0
11 4 18 9 15 23 -14 -5 46 -35 75 -34 33 -34 33 -34 8 0 -37 -14 -53 -29 -35
-10 12 -9 16 5 24 16 9 15 10 -4 16 -25 8 -29 26 -6 26 8 0 13 4 10 9 -4 5 -2
11 3 13 5 1 10 28 12 58 2 52 -2 75 -20 110 -5 10 -1 18 12 25 13 7 30 41 51
104 29 88 33 96 62 103 17 4 37 15 44 23 7 8 17 15 22 15 20 0 36 26 26 43
-13 25 -54 21 -76 -8 -11 -14 -25 -25 -31 -25 -6 0 -11 -5 -11 -10 0 -6 -16
-27 -36 -47 -32 -32 -35 -33 -29 -12 4 13 15 32 24 41 35 37 46 53 51 72 4 13
16 22 30 25 14 1 28 8 32 14 7 11 90 45 115 46 6 1 14 -3 17 -7z m7180 -7 c-4
-8 -10 -15 -15 -15 -5 0 -9 7 -9 15 0 8 7 15 15 15 9 0 12 -6 9 -15z m-9200
-11 c13 -34 4 -61 -37 -107 -23 -26 -45 -47 -49 -47 -4 0 13 21 37 48 30 31
45 56 45 74 0 20 -4 26 -15 22 -15 -6 -21 7 -8 19 11 11 20 8 27 -9z m-1825
-28 c5 -3 12 -21 15 -40 4 -21 24 -53 54 -84 26 -27 58 -71 71 -98 27 -54 55
-193 54 -269 -1 -79 -30 -194 -67 -265 -19 -36 -48 -111 -65 -165 -17 -55 -40
-115 -51 -133 l-21 -34 21 -42 c35 -73 23 -106 -38 -106 -24 0 -42 8 -58 25
-13 14 -29 25 -37 25 -7 0 -18 5 -25 12 -16 16 -42 -7 -42 -37 0 -69 -27 -71
-58 -5 -20 42 -21 52 -10 69 18 29 24 26 32 -11 11 -56 20 -20 17 72 -2 71 1
96 15 120 10 16 24 30 30 30 7 0 15 7 18 16 3 8 11 12 17 8 9 -5 10 6 6 42 -5
48 -5 49 13 26 25 -30 30 -28 30 12 0 26 -5 36 -20 41 -11 3 -20 13 -20 20 0
12 -130 85 -152 85 -4 0 -8 -7 -8 -15 0 -17 -35 -20 -45 -4 -5 6 -11 4 -19 -7
-11 -14 -17 -15 -50 -4 -41 13 -66 8 -66 -15 0 -12 14 -15 69 -15 51 0 72 -4
82 -16 12 -14 9 -20 -21 -45 -19 -16 -42 -29 -51 -29 -9 0 -20 -7 -23 -16 -5
-13 -15 -15 -47 -10 -64 10 -82 23 -74 53 3 14 2 23 -2 21 -70 -35 -90 -40
-149 -33 -70 7 -84 -2 -63 -41 7 -13 10 -26 8 -29 -4 -4 -125 32 -137 41 -9 6
33 118 72 194 24 47 52 115 62 150 23 86 57 162 100 227 30 46 47 59 107 88
48 22 90 52 127 89 30 31 61 56 69 56 12 0 12 -3 -1 -17 -34 -39 -48 -143 -19
-143 18 0 90 57 257 202 18 15 70 18 93 4z m930 -28 c-8 -16 -58 -48 -74 -48
-16 0 -2 22 20 30 13 5 27 20 31 34 5 20 9 23 19 13 9 -8 10 -18 4 -29z m8525
-34 c9 -24 7 -54 -4 -54 -5 0 -10 7 -10 16 0 10 -6 14 -15 10 -18 -7 -20 15
-3 32 16 16 25 15 32 -4z m-1887 -16 c-3 -8 -6 -5 -6 6 -1 11 2 17 5 13 3 -3
4 -12 1 -19z m-657 8 c0 -3 -4 -8 -10 -11 -5 -3 -10 -1 -10 4 0 6 5 11 10 11
6 0 10 -2 10 -4z m3039 -25 c-3 -6 -10 -7 -18 -2 -7 5 -10 14 -6 21 9 14 29
-2 24 -19z m-1501 -1 c-7 -10 -14 -18 -15 -16 -6 6 9 36 18 36 5 0 4 -9 -3
-20z m-1541 -22 c-3 -8 -6 -5 -6 6 -1 11 2 17 5 13 3 -3 4 -12 1 -19z m-4207
-73 c44 -10 103 19 95 46 -10 31 13 22 31 -12 13 -26 14 -41 5 -91 -23 -134
-94 -208 -197 -208 -58 0 -89 20 -79 50 3 10 1 21 -5 25 -15 9 -2 25 21 25 16
0 18 -3 9 -20 -9 -17 -6 -20 25 -26 20 -3 39 -3 42 0 13 13 11 36 -2 36 -8 0
-16 4 -19 9 -4 5 18 8 48 8 38 -2 52 -6 49 -14 -3 -7 -1 -13 5 -13 15 0 19 65
5 78 -9 9 -13 7 -18 -8 -4 -13 -15 -20 -32 -20 -22 0 -24 3 -19 24 7 27 -14
41 -34 23 -10 -9 -14 -9 -17 1 -3 6 -12 12 -20 12 -11 0 -14 -7 -11 -25 4 -21
1 -25 -18 -25 -18 0 -24 6 -24 23 l-1 22 -19 -24 c-14 -16 -17 -27 -10 -36 5
-6 7 -15 3 -18 -3 -4 -1 -7 5 -7 7 0 12 -4 12 -10 0 -5 -4 -10 -9 -10 -14 0
-49 92 -57 148 -7 57 0 63 40 37 20 -14 27 -14 58 -1 19 8 43 27 52 42 l18 26
18 -30 c12 -19 30 -33 50 -37z m-2070 39 c0 -20 -39 -53 -62 -54 -25 0 -22 10
10 42 31 31 52 35 52 12z m4724 0 c20 -3 39 -10 42 -15 7 -12 -56 1 -86 18
-14 8 -17 12 -8 9 9 -3 33 -8 52 -12z m101 6 c3 -6 -1 -7 -9 -4 -18 7 -21 14
-7 14 6 0 13 -4 16 -10z m-1881 -46 c3 -8 3 -26 0 -40 -8 -31 -59 -35 -67 -5
-11 42 52 84 67 45z m3320 1 c3 -8 11 -15 19 -15 17 0 58 -55 62 -83 1 -12 8
-35 14 -50 25 -64 9 -141 -44 -217 -41 -58 -88 -90 -135 -90 -47 0 -120 46
-150 95 -29 48 -55 176 -37 187 16 10 40 10 33 0 -8 -13 100 2 117 16 21 18
30 61 17 77 -9 11 -6 20 13 40 22 24 62 51 78 54 4 1 9 -6 13 -14z m-5384 -16
c0 -5 -15 -9 -32 -9 -31 1 -32 2 -15 15 19 14 47 10 47 -6z m2570 -12 c0 -4
-9 -3 -20 3 -11 6 -20 15 -20 20 0 6 9 5 20 -2 11 -7 20 -16 20 -21z m1407 7
c-3 -3 -12 -4 -19 -1 -8 3 -5 6 6 6 11 1 17 -2 13 -5z m-3697 -29 c0 -8 -4
-15 -10 -15 -5 0 -10 7 -10 15 0 8 5 15 10 15 6 0 10 -7 10 -15z m-1028 -7
c-7 -7 -12 -18 -12 -25 0 -7 -14 -32 -30 -55 -17 -24 -42 -60 -56 -82 -15 -22
-41 -45 -64 -54 -33 -15 -43 -28 -80 -105 -40 -82 -48 -125 -16 -81 25 34 29
7 7 -51 -12 -31 -21 -71 -21 -90 0 -40 -12 -45 -28 -12 -9 19 -11 16 -11 -25
-1 -46 -2 -48 -31 -48 -22 0 -28 -4 -23 -16 10 -26 54 -13 73 23 10 18 22 39
28 46 6 7 45 80 87 161 87 171 97 186 186 275 36 36 71 78 77 94 11 25 32 38
32 19 0 -5 18 -28 40 -52 70 -76 105 -160 120 -288 7 -62 16 -112 21 -112 8 0
103 153 116 186 7 20 55 84 87 117 25 26 166 127 177 127 4 0 -5 -30 -20 -67
-37 -88 -48 -137 -30 -131 8 3 15 20 17 39 2 27 9 38 30 47 15 6 72 41 126 77
55 36 104 65 109 65 14 0 -4 -43 -37 -85 -33 -41 -41 -55 -76 -122 -12 -24
-25 -43 -29 -43 -9 0 -45 48 -55 75 -6 13 -10 16 -13 7 -3 -7 1 -20 8 -28 11
-14 5 -24 -45 -70 -53 -49 -57 -57 -54 -91 3 -33 8 -41 41 -56 20 -10 37 -23
37 -28 0 -8 -126 -174 -158 -208 -7 -7 -13 -36 -13 -65 1 -67 -9 -135 -20
-142 -5 -3 -36 -10 -70 -15 -34 -5 -74 -16 -90 -24 -41 -22 -68 -19 -80 8 -12
27 -68 44 -139 43 l-45 -1 -3 -42 c-2 -33 -7 -43 -21 -43 -38 0 -52 133 -15
147 17 6 18 52 0 75 -7 10 -21 15 -32 12 -11 -3 -30 -1 -44 5 -24 9 -24 10 9
10 l34 1 -41 30 c-23 17 -42 37 -42 45 0 14 -29 35 -49 35 -6 0 -7 -14 -4 -34
4 -24 0 -40 -13 -56 -38 -45 -70 -71 -119 -96 -40 -21 -58 -24 -95 -19 -25 3
-61 6 -80 5 -40 0 -118 19 -125 31 -10 16 15 59 34 59 22 0 41 27 41 57 0 10
11 34 24 53 13 19 27 46 31 60 4 14 24 59 43 100 35 73 36 74 40 41 l3 -34 33
64 c18 35 31 66 29 68 -2 3 -17 -9 -34 -25 l-32 -29 7 30 c12 50 36 93 63 110
32 22 57 13 48 -17 -6 -21 -6 -22 9 -8 9 9 17 38 20 74 2 32 9 63 16 69 8 9
10 8 5 -5 -10 -26 2 -22 58 19 46 34 125 81 137 83 2 0 -1 -5 -8 -12z m5677
-54 c-7 -13 -18 -24 -25 -24 -24 0 -46 -48 -47 -105 -1 -30 2 -57 8 -59 5 -3
0 -8 -13 -12 -17 -5 -22 -12 -19 -25 3 -12 0 -19 -9 -19 -8 0 -14 -5 -14 -10
0 -6 8 -10 17 -8 10 2 19 -4 21 -14 4 -23 -20 -23 -54 -2 -23 16 -24 18 -8 35
16 17 16 19 -1 25 -17 7 -17 8 3 15 33 12 66 99 49 126 -12 20 26 91 64 119
l34 25 3 -22 c2 -12 -2 -33 -9 -45z m-922 14 c-3 -8 -6 -5 -6 6 -1 11 2 17 5
13 3 -3 4 -12 1 -19z m-1327 -13 l25 -15 -34 2 c-19 2 -36 9 -39 16 -5 16 17
15 48 -3z m5787 -27 c-3 -8 -6 -5 -6 6 -1 11 2 17 5 13 3 -3 4 -12 1 -19z
m-8157 -33 c25 -25 48 -45 52 -45 7 0 96 -119 140 -187 l27 -42 -19 -68 c-20
-72 -64 -178 -84 -203 -7 -8 -22 -47 -34 -86 -18 -57 -20 -80 -13 -118 11 -59
-1 -116 -30 -138 -29 -24 -53 -23 -46 2 5 21 -16 45 -32 36 -5 -4 -13 -2 -16
4 -4 6 -15 8 -26 5 -24 -8 -26 17 -3 36 12 9 14 23 10 50 -4 23 0 50 9 73 21
50 20 53 -22 59 -50 6 -56 1 -37 -28 11 -17 14 -33 8 -52 -4 -16 -6 -34 -5
-41 1 -7 -5 -15 -14 -18 -8 -3 -15 -11 -15 -16 0 -5 -18 -27 -40 -48 -22 -21
-40 -46 -40 -55 0 -14 -6 -12 -31 9 -31 26 -67 32 -161 27 -51 -4 -50 18 3 61
23 18 52 43 64 56 12 12 27 22 34 22 6 0 11 7 11 15 0 8 -4 15 -10 15 -5 0
-10 9 -10 21 0 16 4 19 21 14 18 -6 20 -4 14 15 -5 15 -3 20 3 16 6 -4 16 3
23 15 8 16 8 23 -1 29 -7 4 -9 16 -6 28 5 14 1 24 -10 30 -10 5 -18 27 -21 55
-5 43 -4 47 16 47 25 0 28 26 7 55 -12 17 -11 23 6 45 11 14 40 60 66 104 25
43 65 99 89 124 24 26 43 56 43 68 0 31 10 54 24 54 6 -1 31 -21 56 -45z
m6965 36 c29 -7 29 -7 8 -15 -13 -4 -23 -12 -23 -17 0 -14 -18 -11 -39 8 -35
29 -13 39 54 24z m-4704 -34 c-13 -13 -26 -3 -16 12 3 6 11 8 17 5 6 -4 6 -10
-1 -17z m-1738 -66 c-13 -11 -23 -23 -23 -28 0 -11 -40 -36 -48 -29 -13 13 18
53 49 63 46 15 47 15 22 -6z m4832 -9 c-3 -3 -11 0 -18 7 -9 10 -8 11 6 5 10
-3 15 -9 12 -12z m-4264 -151 c73 -73 126 -145 153 -207 17 -39 17 -47 3 -115
-9 -41 -25 -96 -37 -124 -12 -27 -32 -99 -45 -160 -13 -60 -31 -132 -40 -160
-8 -27 -15 -67 -15 -88 0 -30 -5 -40 -24 -49 -33 -14 -63 -4 -46 17 10 12 9
16 -6 22 -9 3 -26 15 -36 25 -10 10 -25 18 -33 18 -8 0 -17 11 -21 25 -8 32
-31 32 -46 0 -6 -13 -15 -22 -19 -19 -5 2 -25 -6 -46 -19 -36 -23 -46 -24
-165 -22 -70 2 -132 6 -137 10 -7 3 -11 -3 -11 -14 0 -27 -16 -26 -65 4 -22
14 -50 29 -62 34 -11 5 -24 14 -27 19 -7 12 -46 4 -46 -9 0 -4 25 -24 55 -44
66 -44 71 -65 16 -65 -22 0 -43 5 -46 10 -7 12 -79 50 -95 50 -6 0 -15 -12
-20 -26 -7 -16 -16 -24 -28 -22 -27 5 -19 62 24 163 20 50 38 107 39 127 0 20
7 45 15 55 22 27 40 61 40 76 0 22 67 223 90 269 30 60 79 108 108 108 33 0
92 38 92 58 0 20 51 82 67 82 15 0 22 -31 12 -55 -4 -11 -8 -35 -8 -53 l-1
-34 73 62 c39 34 108 90 152 126 l79 66 21 -38 c11 -21 50 -67 86 -103z m4324
41 c-3 -3 -11 0 -18 7 -9 10 -8 11 6 5 10 -3 15 -9 12 -12z m-5725 -12 c0 -25
-30 -79 -49 -89 -22 -12 -71 -5 -71 10 0 9 100 89 113 89 4 0 7 -5 7 -10z
m2624 -27 c-4 -16 -11 -36 -16 -47 -8 -15 -12 -16 -19 -5 -5 9 -3 17 6 22 8 4
15 16 15 26 0 16 8 31 17 31 2 0 0 -12 -3 -27z m1664 19 c14 -5 15 -87 4 -194
-9 -73 -16 -88 -34 -70 -7 7 -27 12 -45 12 -28 0 -33 4 -33 23 0 13 -4 27 -10
33 -5 5 -12 47 -16 93 -6 76 -5 85 12 98 17 13 90 16 122 5z m-2273 -62 c3 -5
1 -10 -4 -10 -6 0 -11 5 -11 10 0 6 2 10 4 10 3 0 8 -4 11 -10z m-2825 -380
c15 -8 18 -17 13 -42 -8 -39 -42 -71 -60 -56 -7 5 -20 7 -31 4 -10 -3 -26 0
-36 7 -18 13 -18 14 0 35 10 12 24 22 31 22 7 0 13 6 13 14 0 8 10 17 23 19
12 2 23 5 25 6 2 0 12 -4 22 -9z m-515 -27 c-3 -16 -15 -37 -26 -48 -17 -18
-19 -18 -19 -2 0 25 28 77 41 77 7 0 9 -10 4 -27z m10252 -5 c-3 -8 -6 -5 -6
6 -1 11 2 17 5 13 3 -3 4 -12 1 -19z m-10669 -61 c3 -16 1 -17 -17 -7 -25 13
-28 33 -4 28 10 -2 19 -11 21 -21z m-328 -71 c40 -77 50 -116 29 -116 -5 0 -7
5 -4 10 3 6 0 11 -7 11 -7 1 -18 2 -24 3 -17 2 -63 61 -75 96 -10 27 -9 34 12
56 12 13 24 22 26 21 2 -2 21 -39 43 -81z m50 -12 c0 -19 -16 -18 -24 2 -11
27 -7 37 9 24 8 -7 15 -19 15 -26z m1270 16 c0 -11 -4 -20 -9 -20 -5 0 -7 9
-4 20 3 11 7 20 9 20 2 0 4 -9 4 -20z m-1413 -17 c10 -16 21 -30 24 -33 4 -3
11 -18 15 -34 6 -25 5 -28 -7 -18 -8 7 -26 21 -41 33 -20 14 -28 29 -28 50 0
36 14 37 37 2z m346 -14 c27 -14 37 -28 37 -51 0 -22 -26 -24 -34 -3 -4 12
-15 14 -47 9 -31 -5 -40 -4 -35 4 4 7 17 12 29 13 12 0 16 3 9 6 -10 4 -10 8
-1 19 14 17 15 17 42 3z m1571 -37 c-34 -27 -94 -38 -94 -17 0 11 42 31 100
48 28 8 25 -5 -6 -31z m526 -2 c0 -5 -2 -10 -4 -10 -3 0 -8 5 -11 10 -3 6 -1
10 4 10 6 0 11 -4 11 -10z m-1804 -44 c8 -8 14 -19 14 -25 0 -11 -101 -61
-163 -81 -64 -20 -53 -3 13 21 73 26 110 53 110 80 0 23 6 24 26 5z m10491
-38 c-3 -8 -6 -5 -6 6 -1 11 2 17 5 13 3 -3 4 -12 1 -19z m-8693 -9 c-3 -5
-10 -7 -15 -3 -5 3 -7 10 -3 15 3 5 10 7 15 3 5 -3 7 -10 3 -15z m8376 -4 c0
-8 -4 -15 -10 -15 -5 0 -10 7 -10 15 0 8 5 15 10 15 6 0 10 -7 10 -15z
m-11317 -25 c9 -11 17 -26 17 -33 0 -7 9 -18 20 -24 16 -11 43 -75 45 -108 0
-5 4 -13 10 -17 22 -16 -55 -32 -152 -33 -109 0 -132 8 -115 41 5 11 20 41 33
69 13 27 34 55 46 61 12 6 32 23 43 37 26 32 30 33 53 7z m11837 -9 c0 -6 -4
-13 -10 -16 -5 -3 -10 1 -10 9 0 9 5 16 10 16 6 0 10 -4 10 -9z m-8852 -66
c13 -34 22 -73 20 -94 -3 -33 -5 -29 -21 34 -9 39 -24 75 -32 81 -18 13 -20
47 -3 42 7 -3 23 -31 36 -63z m7512 25 c13 -9 13 -11 0 -19 -17 -12 -30 -5
-30 15 0 16 9 18 30 4z m-8526 -26 c9 -24 7 -31 -9 -38 -16 -6 -40 28 -30 44
9 15 32 12 39 -6z m9493 -16 c-3 -8 -6 -5 -6 6 -1 11 2 17 5 13 3 -3 4 -12 1
-19z m743 -18 c0 -5 -5 -10 -11 -10 -5 0 -7 5 -4 10 3 6 8 10 11 10 2 0 4 -4
4 -10z m-8229 -17 c13 -15 12 -15 -8 -4 -24 12 -29 21 -14 21 5 0 15 -7 22
-17z m-1018 -42 c5 -45 22 -88 39 -101 4 -3 6 -12 5 -20 -2 -23 13 -127 28
-197 7 -35 9 -63 4 -63 -4 0 -11 17 -14 38 -4 20 -20 89 -36 152 -22 92 -49
219 -49 237 0 2 4 3 9 3 4 0 11 -22 14 -49z m-986 17 c-3 -8 -6 -5 -6 6 -1 11
2 17 5 13 3 -3 4 -12 1 -19z m939 -13 c-8 -23 -25 -9 -19 16 4 13 9 17 16 10
5 -5 7 -17 3 -26z m8550 7 c-4 -15 -22 -155 -31 -245 -2 -16 -6 -31 -10 -35
-7 -7 -1 160 8 208 14 80 20 99 29 94 5 -3 7 -13 4 -22z m-7446 -30 c0 -5 -13
-7 -30 -4 -16 2 -30 6 -30 8 0 2 14 4 30 4 17 0 30 -4 30 -8z m7641 -155 c-6
-15 -16 -27 -22 -27 -12 0 -10 17 13 125 l13 60 3 -66 c2 -36 -2 -78 -7 -92z
m-8756 133 c3 -5 1 -10 -4 -10 -6 0 -11 5 -11 10 0 6 2 10 4 10 3 0 8 -4 11
-10z m1160 -124 c49 -100 52 -111 31 -119 -10 -4 -11 -18 -4 -67 7 -43 6 -66
-1 -73 -8 -8 -11 0 -11 28 0 22 -7 67 -14 99 -8 33 -12 65 -9 73 3 7 0 13 -6
13 -6 0 -11 11 -11 25 0 14 -6 25 -14 25 -8 0 -16 15 -20 38 -14 90 0 79 59
-42z m1145 94 c0 -5 -7 -10 -15 -10 -8 0 -15 5 -15 10 0 6 7 10 15 10 8 0 15
-4 15 -10z m4325 -12 c7 -7 1 -8 -20 -4 -16 4 -34 12 -40 18 -7 7 -1 8 20 4
17 -4 35 -12 40 -18z m-6007 -19 c-3 -39 -8 -41 -54 -25 -42 14 -53 41 -17 41
11 0 25 3 29 8 4 4 16 7 26 7 14 0 18 -7 16 -31z m7849 -21 c-2 -13 -4 -5 -4
17 -1 22 1 32 4 23 2 -10 2 -28 0 -40z m-6162 12 c3 -5 -1 -10 -10 -10 -9 0
-13 5 -10 10 3 6 8 10 10 10 2 0 7 -4 10 -10z m-3057 -70 c5 -30 9 -56 7 -58
-4 -4 -35 101 -35 119 0 30 18 -10 28 -61z m2967 44 c-27 -7 -66 -12 -85 -12
-24 0 -12 5 40 17 41 10 80 15 85 12 6 -3 -12 -11 -40 -17z m-3008 -6 c-3 -8
-6 -5 -6 6 -1 11 2 17 5 13 3 -3 4 -12 1 -19z m1453 12 c0 -5 -4 -10 -10 -10
-5 0 -10 5 -10 10 0 6 5 10 10 10 6 0 10 -4 10 -10z m6418 -15 c8 -7 -23 -85
-34 -85 -16 0 -24 23 -17 50 5 18 2 21 -13 18 -13 -3 -18 -12 -17 -29 1 -14
-4 -26 -11 -26 -6 0 -24 -3 -40 -7 -23 -6 -27 -4 -23 8 3 8 9 31 13 51 l6 36
67 -7 c36 -3 67 -8 69 -9z m-7938 1 c0 -3 -4 -8 -10 -11 -5 -3 -10 -1 -10 4 0
6 5 11 10 11 6 0 10 -2 10 -4z m1950 -31 c0 -13 6 -25 14 -28 9 -4 12 -14 9
-26 -4 -15 -1 -21 12 -21 14 0 16 -7 13 -37 -3 -21 0 -60 6 -88 7 -27 10 -58
8 -67 -4 -20 -22 -24 -22 -5 -3 59 -12 108 -24 132 -9 17 -16 39 -16 51 0 11
-4 24 -9 30 -6 5 -13 28 -17 52 -6 37 -4 42 10 36 9 -3 16 -16 16 -29z m1230
15 c0 -5 -7 -10 -15 -10 -8 0 -15 5 -15 10 0 6 7 10 15 10 8 0 15 -4 15 -10z
m3530 -5 c19 -7 28 -14 20 -14 -8 0 -28 6 -45 14 -39 17 -21 18 25 0z m-6643
-32 c-3 -10 -5 -4 -5 12 0 17 2 24 5 18 2 -7 2 -21 0 -30z m3053 28 c0 -11
-31 -19 -105 -26 l-60 -5 60 19 c67 21 105 25 105 12z m-326 -26 c-6 -16 -24
-21 -24 -7 0 11 11 22 21 22 5 0 6 -7 3 -15z m420 -21 c10 -25 -1 -29 -14 -5
-6 12 -7 21 -1 21 5 0 12 -7 15 -16z m2428 -34 c34 -16 58 -30 51 -30 -21 0
-123 43 -123 51 0 13 1 12 72 -21z m198 21 c0 -6 -4 -13 -10 -16 -5 -3 -10 1
-10 9 0 9 5 16 10 16 6 0 10 -4 10 -9z m1073 2 c-7 -2 -19 -2 -25 0 -7 3 -2 5
12 5 14 0 19 -2 13 -5z m-3743 -17 c0 -2 3 -13 6 -23 5 -17 5 -17 -6 0 -6 9
-15 15 -21 12 -5 -4 -9 -1 -9 4 0 6 7 11 15 11 8 0 15 -2 15 -4z m2380 -10 c0
-3 -4 -8 -10 -11 -5 -3 -10 -1 -10 4 0 6 5 11 10 11 6 0 10 -2 10 -4z m690 -5
c0 -6 -4 -13 -10 -16 -5 -3 -10 1 -10 9 0 9 5 16 10 16 6 0 10 -4 10 -9z
m3356 -18 c-10 -10 -19 5 -10 18 6 11 8 11 12 0 2 -7 1 -15 -2 -18z m-3971
-10 c30 -15 55 -31 55 -35 0 -5 -13 -2 -30 7 -16 8 -36 15 -45 15 -24 0 -56
20 -50 31 8 12 7 13 70 -18z m293 5 c28 -6 52 -15 52 -19 0 -10 -56 -1 -140
23 l-65 18 50 -5 c28 -3 74 -10 103 -17z m1312 12 c0 -5 -4 -10 -9 -10 -6 0
-13 5 -16 10 -3 6 1 10 9 10 9 0 16 -4 16 -10z m-4787 -31 c-6 -6 -17 -8 -24
-3 -9 5 -8 9 7 14 23 9 31 3 17 -11z m-376 -11 c-3 -8 -6 -5 -6 6 -1 11 2 17
5 13 3 -3 4 -12 1 -19z m1121 -8 c-2 -6 -8 -6 -18 0 -13 9 -13 11 0 20 15 10
25 0 18 -20z m2315 -7 c-21 -21 -39 -37 -41 -36 -5 2 31 57 43 65 5 4 16 8 23
8 7 0 -4 -17 -25 -37z m677 27 c0 -5 -5 -10 -11 -10 -5 0 -7 5 -4 10 3 6 8 10
11 10 2 0 4 -4 4 -10z m-295 -21 c33 -6 62 -13 65 -16 9 -10 -94 6 -141 22
-24 8 -30 12 -14 9 17 -3 57 -10 90 -15z m408 -39 c-2 -3 -11 4 -19 14 -11 16
-16 17 -29 6 -18 -15 -19 -7 -4 22 11 20 12 20 34 -8 13 -16 21 -31 18 -34z
m-4443 2 c0 -60 -15 -65 -17 -6 -2 35 1 53 7 49 6 -3 10 -23 10 -43z m-966
-41 c-5 -12 -9 -8 -14 14 -3 17 -4 34 -2 39 8 15 23 -36 16 -53z m1236 1 c14
-20 24 -22 137 -23 67 -1 126 2 132 5 16 10 14 -45 -4 -129 -8 -39 -15 -89
-15 -113 0 -25 -4 -41 -10 -37 -5 3 -14 -14 -20 -37 -6 -24 -17 -63 -25 -88
-8 -25 -20 -78 -26 -118 -7 -40 -18 -80 -25 -90 -7 -9 -14 -12 -14 -7 0 9 -17
84 -64 285 -7 30 -25 98 -38 150 -14 52 -29 115 -33 140 -4 25 -16 56 -26 69
-11 13 -19 31 -19 40 1 17 16 3 50 -47z m1096 -24 c2 -29 7 -79 10 -110 4 -40
3 -58 -5 -58 -6 0 -11 12 -12 28 -1 58 -9 106 -25 148 -9 24 -13 51 -10 60 13
33 38 -9 42 -68z m2662 61 c39 -7 72 -16 72 -21 0 -11 -62 -3 -137 18 -51 14
-77 32 -30 21 12 -4 55 -11 95 -18z m-315 -37 c-3 -12 -9 -22 -14 -22 -11 0
-12 54 -2 64 11 11 23 -19 16 -42z m3797 41 c0 -5 -7 -17 -15 -27 -15 -20 -20
-10 -9 18 6 16 24 22 24 9z m141 -36 c-8 -8 -11 -5 -11 9 0 27 14 41 18 19 2
-9 -1 -22 -7 -28z m-7981 23 c0 -5 -2 -10 -4 -10 -3 0 -8 5 -11 10 -3 6 -1 10
4 10 6 0 11 -4 11 -10z m8070 -10 c0 -11 -4 -20 -10 -20 -5 0 -10 9 -10 20 0
11 5 20 10 20 6 0 10 -9 10 -20z m1050 -10 c0 -16 -2 -30 -5 -30 -8 0 -23 44
-18 53 10 17 23 5 23 -23z m-8140 -5 c0 -8 -4 -15 -10 -15 -5 0 -10 7 -10 15
0 8 5 15 10 15 6 0 10 -7 10 -15z m-990 -34 c0 -6 -4 -13 -10 -16 -5 -3 -10 1
-10 9 0 9 5 16 10 16 6 0 10 -4 10 -9z m-2303 -48 c-3 -10 -5 -2 -5 17 0 19 2
27 5 18 2 -10 2 -26 0 -35z m2657 31 c10 -27 7 -56 -6 -52 -15 5 -24 68 -10
68 6 0 13 -7 16 -16z m626 -10 c0 -8 -4 -14 -10 -14 -5 0 -10 9 -10 21 0 11 5
17 10 14 6 -3 10 -13 10 -21z m3635 16 c3 -5 1 -10 -4 -10 -6 0 -11 5 -11 10
0 6 2 10 4 10 3 0 8 -4 11 -10z m-4607 -63 c-2 -20 -9 -31 -21 -33 -15 -2 -18
2 -13 19 3 12 6 30 6 39 0 12 5 15 16 11 10 -4 14 -16 12 -36z m532 33 c0 -5
-4 -10 -10 -10 -5 0 -10 5 -10 10 0 6 5 10 10 10 6 0 10 -4 10 -10z m7525 -9
c-3 -6 -11 -11 -17 -11 -6 0 -6 6 2 15 14 17 26 13 15 -4z m-3675 -1 c0 -5 -2
-10 -4 -10 -3 0 -8 5 -11 10 -3 6 -1 10 4 10 6 0 11 -4 11 -10z m3610 -2 c0
-7 -5 -20 -10 -28 -8 -12 -10 -9 -10 13 0 15 5 27 10 27 6 0 10 -6 10 -12z
m-7740 -8 c0 -5 -7 -10 -15 -10 -8 0 -15 5 -15 10 0 6 7 10 15 10 8 0 15 -4
15 -10z m237 -12 c-3 -8 -6 -5 -6 6 -1 11 2 17 5 13 3 -3 4 -12 1 -19z m478
13 c3 -5 1 -29 -4 -53 -5 -24 -17 -101 -26 -173 -9 -71 -20 -152 -25 -180 -14
-75 -57 -361 -64 -428 -2 -15 -6 -31 -10 -35 -14 -13 -23 21 -16 57 7 35 27
147 71 396 18 103 48 353 49 408 0 18 15 23 25 8z m3635 -11 c-8 -5 -17 -7
-19 -4 -3 3 1 9 9 14 8 5 17 7 19 4 3 -3 -1 -9 -9 -14z m-110 -2 c0 -4 -7 -8
-15 -8 -8 0 -15 4 -15 8 0 5 7 9 15 9 8 0 15 -4 15 -9z m-3947 -50 c-2 -5 -8
-8 -14 -8 -11 0 -12 43 -2 54 9 8 22 -34 16 -46z m505 16 c-1 -20 -6 -38 -12
-40 -6 -2 -12 -32 -14 -67 -3 -72 -9 -97 -23 -97 -6 0 -8 12 -5 28 4 15 8 48
10 74 9 99 18 138 32 138 9 0 13 -12 12 -36z m2974 18 c-10 -3 -10 -7 -2 -17
13 -15 0 -27 -18 -16 -18 11 -3 51 16 43 11 -4 12 -7 4 -10z m-2592 -43 c0
-24 -4 -38 -10 -34 -5 3 -10 24 -10 46 0 24 4 38 10 34 6 -3 10 -24 10 -46z
m114 36 c5 0 10 -11 11 -25 2 -14 9 -54 15 -90 7 -36 14 -92 15 -125 2 -33 6
-81 10 -106 5 -43 4 -46 -17 -44 -28 2 -35 31 -44 184 -6 91 -4 115 7 122 11
7 11 9 -3 9 -10 0 -18 6 -18 14 0 7 -3 28 -7 46 -5 27 -4 31 8 24 8 -5 18 -9
23 -9z m2547 1 c12 7 12 -19 0 -48 -5 -13 -13 -32 -17 -43 -12 -33 -45 -148
-49 -175 -3 -14 -12 -43 -20 -65 l-16 -40 5 45 c3 25 12 81 21 125 9 44 19 92
22 108 3 15 9 27 14 27 5 0 6 6 3 13 -3 8 0 27 7 43 6 16 13 23 16 16 3 -6 9
-10 14 -6z m-3737 -30 c-3 -8 -1 -30 4 -50 6 -21 7 -38 1 -41 -4 -3 -10 4 -13
17 -12 58 -15 86 -9 92 10 10 22 -4 17 -18z m103 -19 c8 -23 12 -26 12 -12 1
11 6 27 11 35 8 12 10 9 10 -12 0 -15 -7 -34 -17 -43 -19 -20 -26 -11 -38 45
-9 41 5 33 22 -13z m875 8 c-2 -19 -6 -35 -8 -35 -2 0 -4 16 -4 35 0 19 4 35
8 35 4 0 6 -16 4 -35z m3168 25 c0 -5 -7 -7 -15 -4 -8 4 -15 8 -15 10 0 2 7 4
15 4 8 0 15 -4 15 -10z m-4733 -32 c-3 -7 -5 -2 -5 12 0 14 2 19 5 13 2 -7 2
-19 0 -25z m8953 10 c0 -5 -4 -6 -10 -3 -5 3 -10 2 -10 -4 0 -5 6 -12 13 -14
7 -3 5 -6 -5 -6 -13 -1 -18 7 -18 24 0 18 4 23 15 19 8 -4 15 -10 15 -16z
m-8730 -10 c0 -10 -7 -18 -15 -18 -8 0 -15 8 -15 18 0 10 7 19 15 19 8 0 15
-9 15 -19z m4507 -20 c-3 -8 -6 -5 -6 6 -1 11 2 17 5 13 3 -3 4 -12 1 -19z
m3479 -36 c-12 -11 -18 7 -10 30 l8 23 4 -23 c2 -13 1 -26 -2 -30z m-7416 27
c0 -5 -4 -7 -10 -4 -5 3 -10 1 -10 -6 0 -7 -3 -10 -6 -6 -8 7 4 27 17 27 5 0
9 -5 9 -11z m3455 1 c-3 -5 -12 -7 -20 -3 -21 7 -19 13 6 13 11 0 18 -4 14
-10z m-4032 -14 c10 -24 -4 -56 -24 -56 -22 0 -22 -2 -8 39 12 33 24 40 32 17z
m1724 -18 c-3 -7 -5 -2 -5 12 0 14 2 19 5 13 2 -7 2 -19 0 -25z m-262 -40 c13
-115 14 -148 5 -148 -17 0 -21 20 -26 115 -5 107 9 130 21 33z m3183 23 c0
-20 -5 -30 -18 -34 -24 -6 -30 0 -30 29 0 22 27 47 41 39 3 -3 6 -18 7 -34z
m-623 -11 c-9 -33 -44 -193 -56 -248 -11 -52 -16 -62 -35 -62 -16 0 -17 5 -8
49 4 19 13 31 23 31 13 0 13 2 2 9 -8 5 -11 16 -8 26 4 9 11 13 17 10 5 -3 10
-2 10 4 0 5 -5 13 -10 16 -14 9 -3 46 18 63 15 11 15 14 2 23 -13 8 -13 11 3
23 11 8 15 20 11 31 -4 10 -1 21 7 26 10 6 10 9 2 9 -7 0 -13 4 -13 9 0 6 9 9
21 8 16 -1 19 -6 14 -27z m505 20 c0 -5 -4 -10 -10 -10 -5 0 -10 5 -10 10 0 6
5 10 10 10 6 0 10 -4 10 -10z m0 -30 c0 -5 -4 -10 -10 -10 -5 0 -10 5 -10 10
0 6 5 10 10 10 6 0 10 -4 10 -10z m-4140 -21 c0 -11 -4 -18 -10 -14 -5 3 -7
12 -3 20 7 21 13 19 13 -6z m-610 7 c0 -3 -4 -8 -10 -11 -5 -3 -10 -1 -10 4 0
6 5 11 10 11 6 0 10 -2 10 -4z m1550 -63 c-10 -16 -11 -15 -6 7 3 14 6 34 7
45 1 13 3 11 6 -7 2 -15 -1 -35 -7 -45z m2814 40 c-1 -16 -3 -40 -3 -55 -1
-16 -6 -28 -12 -28 -7 0 -9 10 -5 24 3 14 2 28 -4 31 -5 3 -10 11 -10 16 0 6
5 7 10 4 6 -3 10 3 10 14 0 12 4 21 8 21 4 0 7 -12 6 -27z m73 -20 c-3 -10 -5
-2 -5 17 0 19 2 27 5 18 2 -10 2 -26 0 -35z m-2555 22 c0 -8 1 -19 2 -25 1 -5
-3 -11 -9 -12 -5 -2 -10 9 -11 25 -1 28 15 39 18 12z m-1666 -17 c-5 -23 -15
-107 -22 -183 -2 -22 -12 -46 -22 -54 -12 -9 -13 -15 -4 -18 18 -7 15 -33 -4
-33 -14 0 -16 9 -11 58 7 77 18 122 28 122 5 0 9 5 9 11 0 5 -5 7 -12 3 -8 -5
-9 4 -5 32 4 21 7 49 7 62 0 15 6 22 20 22 16 0 19 -5 16 -22z m4661 -18 c2
-19 4 -44 5 -55 2 -15 -2 -19 -17 -17 -27 5 -26 3 -31 60 -5 46 -4 49 17 48
19 -1 24 -8 26 -36z m-4887 26 c0 -3 -4 -8 -10 -11 -5 -3 -10 -1 -10 4 0 6 5
11 10 11 6 0 10 -2 10 -4z m739 -23 c0 -25 -1 -26 -9 -8 -12 27 -12 35 0 35 6
0 10 -12 9 -27z m-302 -15 c-3 -8 -6 -5 -6 6 -1 11 2 17 5 13 3 -3 4 -12 1
-19z m195 -3 c3 -14 2 -28 -2 -30 -4 -3 -10 9 -12 25 -5 36 8 40 14 5z m455 3
c-3 -8 -6 -5 -6 6 -1 11 2 17 5 13 3 -3 4 -12 1 -19z m-1102 -17 c3 -5 1 -12
-5 -16 -5 -3 -10 1 -10 9 0 18 6 21 15 7z m1264 -48 c-4 -26 -8 -57 -8 -67 -1
-11 -4 -17 -7 -13 -8 8 7 138 16 132 4 -2 3 -26 -1 -52z m3508 20 c-3 -10 -5
-4 -5 12 0 17 2 24 5 18 2 -7 2 -21 0 -30z m60 21 c-3 -3 -12 -4 -19 -1 -8 3
-5 6 6 6 11 1 17 -2 13 -5z m-4348 -48 c13 -54 13 -56 1 -56 -13 0 -40 54 -40
80 0 38 27 21 39 -24z m603 -35 c-6 -14 -16 -56 -22 -94 -7 -37 -17 -70 -22
-74 -7 -4 -9 5 -5 23 14 77 38 191 44 209 7 17 8 16 11 -9 2 -15 -1 -40 -6
-55z m-219 56 c4 3 7 -1 7 -9 0 -9 -7 -18 -15 -22 -8 -3 -15 -1 -15 3 0 5 -3
18 -7 28 -6 15 -4 16 9 6 8 -7 18 -10 21 -6z m1157 -7 c0 -5 -2 -10 -4 -10 -3
0 -8 5 -11 10 -3 6 -1 10 4 10 6 0 11 -4 11 -10z m2353 -32 c-4 -19 -12 -28
-24 -28 -26 0 -27 57 -1 63 24 5 31 -4 25 -35z m-3719 -50 c-2 -4 0 -9 6 -13
15 -9 12 -25 -4 -25 -9 0 -15 17 -19 53 -6 63 5 88 14 32 4 -22 5 -43 3 -47z
m-674 52 c0 -11 -4 -20 -9 -20 -5 0 -7 9 -4 20 3 11 7 20 9 20 2 0 4 -9 4 -20z
m1744 -12 c6 -28 17 -126 22 -193 2 -27 8 -70 14 -94 13 -55 20 -107 23 -190
2 -54 -1 -64 -15 -67 -13 -2 -18 5 -19 24 -2 39 2 56 13 63 7 4 7 9 0 13 -9 5
-28 110 -24 128 1 4 -7 52 -18 106 -10 55 -22 129 -26 166 -6 57 -5 66 9 66 9
0 19 -10 21 -22z m3186 -4 c0 -8 -5 -12 -10 -9 -6 4 -8 11 -5 16 9 14 15 11
15 -7z m-3133 0 c-3 -3 -12 -4 -19 -1 -8 3 -5 6 6 6 11 1 17 -2 13 -5z m-1027
-34 c0 -16 -4 -30 -10 -30 -5 0 -10 14 -10 30 0 17 5 30 10 30 6 0 10 -13 10
-30z m130 15 c0 -8 -7 -15 -15 -15 -26 0 -18 20 13 29 1 1 2 -6 2 -14z m895
-15 c3 -5 1 -10 -4 -10 -6 0 -11 5 -11 10 0 6 2 10 4 10 3 0 8 -4 11 -10z
m3145 -37 c0 -14 -6 -23 -15 -23 -8 0 -15 -7 -15 -15 0 -8 7 -15 15 -15 8 0
15 -5 15 -11 0 -6 -10 -9 -21 -7 -18 2 -22 11 -26 55 -3 43 -1 52 14 55 21 5
33 -9 33 -39z m-561 8 c0 -10 -2 -11 -6 -3 -6 16 -23 6 -23 -15 0 -9 6 -13 15
-9 16 6 18 -5 9 -41 -4 -13 -11 -20 -20 -16 -8 3 -14 -1 -14 -11 0 -9 6 -16
13 -16 14 0 21 -95 9 -115 -3 -5 -5 -25 -5 -45 2 -42 -15 -280 -23 -330 -6
-34 -6 -34 -18 -12 -7 12 -16 19 -20 15 -9 -9 -1 159 13 262 5 38 9 72 9 75 0
3 0 26 1 53 1 35 5 47 16 47 8 0 15 7 15 15 0 9 -6 12 -16 8 -13 -5 -15 -1
-11 23 3 16 9 52 12 79 4 28 9 53 11 57 8 13 34 -4 33 -21z m-4394 -13 c-15
-71 -37 -138 -46 -138 -11 0 -11 13 2 70 12 56 31 100 42 100 5 0 6 -15 2 -32z
m945 -19 c0 -19 -20 -18 -30 1 -15 28 -1 49 17 25 7 -11 13 -22 13 -26z m950
5 c0 -14 -25 -26 -34 -17 -13 13 -5 29 14 29 11 0 20 -6 20 -12z m-1103 -44
c10 -25 12 -80 4 -80 -11 0 -31 102 -23 114 3 6 7 3 10 -4 2 -8 6 -22 9 -30z
m1273 30 c0 -5 -4 -10 -10 -10 -5 0 -10 5 -10 10 0 6 5 10 10 10 6 0 10 -4 10
-10z m-1351 -92 c1 -10 -6 -18 -15 -18 -14 0 -14 3 -4 15 9 10 9 15 1 15 -12
0 -15 62 -3 74 6 7 20 -47 21 -86z m558 55 c-3 -10 -5 -4 -5 12 0 17 2 24 5
18 2 -7 2 -21 0 -30z m635 -38 c3 -34 0 -40 -17 -40 -27 0 -41 64 -18 83 22
16 31 6 35 -43z m2301 24 c-23 -8 -27 -4 -19 17 5 14 9 14 22 3 14 -12 14 -14
-3 -20z m-3253 0 c0 -5 -7 -9 -15 -9 -15 0 -20 12 -9 23 8 8 24 -1 24 -14z
m-726 -81 c-7 -58 -9 -82 -13 -130 -1 -11 -9 -18 -22 -18 -19 0 -21 4 -16 38
4 20 9 67 13 105 6 58 10 67 26 67 19 0 19 -4 12 -62z m3986 42 c0 -10 -3 -38
-6 -64 -5 -34 -11 -46 -20 -42 -18 7 -18 -2 -1 -19 12 -11 9 -37 -15 -157 -16
-79 -36 -166 -44 -194 -8 -28 -14 -65 -14 -82 0 -37 -11 -46 -34 -29 -15 11
-15 18 -5 65 7 28 17 52 22 52 5 0 5 6 -1 13 -16 19 0 73 21 69 22 -4 22 14 1
26 -20 11 -10 34 11 25 10 -3 15 1 15 12 0 9 -4 14 -9 10 -18 -10 -22 14 -10
57 21 78 19 74 29 58 6 -8 10 -10 10 -4 0 5 -5 15 -11 21 -8 8 -7 28 5 75 9
35 16 76 16 89 0 30 4 36 25 36 8 0 15 -8 15 -17z m740 -11 c0 -40 -32 -37
-37 4 -3 22 0 27 17 27 16 0 20 -6 20 -31z m-3990 12 c0 -5 -7 -11 -15 -15
-15 -5 -20 5 -8 17 9 10 23 9 23 -2z m103 -16 c-7 -21 -13 -19 -13 6 0 11 4
18 10 14 5 -3 7 -12 3 -20z m-536 -17 c-3 -8 -6 -5 -6 6 -1 11 2 17 5 13 3 -3
4 -12 1 -19z m443 -8 c0 -5 -7 -10 -15 -10 -8 0 -15 5 -15 10 0 6 7 10 15 10
8 0 15 -4 15 -10z m290 -5 c0 -8 -4 -15 -10 -15 -5 0 -7 7 -4 15 4 8 8 15 10
15 2 0 4 -7 4 -15z m-452 -85 c0 -32 -1 -33 -8 -10 -4 14 -8 43 -8 65 0 38 1
39 8 10 4 -16 8 -46 8 -65z m3660 60 c-1 -29 -11 -39 -22 -22 -7 12 4 52 14
52 5 0 8 -13 8 -30z m-3423 -57 c-3 -13 -10 -21 -16 -18 -5 4 -7 16 -3 28 4
12 8 31 10 42 4 32 7 32 11 1 3 -15 2 -39 -2 -53z m3255 67 c0 -5 -2 -10 -4
-10 -3 0 -8 5 -11 10 -3 6 -1 10 4 10 6 0 11 -4 11 -10z m650 -14 c0 -2 -7 -7
-16 -10 -8 -3 -12 -2 -9 4 6 10 25 14 25 6z m-3970 -16 c0 -5 -7 -10 -16 -10
-8 0 -12 5 -9 10 3 6 10 10 16 10 5 0 9 -4 9 -10z m934 -36 c2 -21 7 -58 11
-81 6 -38 5 -43 -12 -43 -11 0 -23 3 -27 8 -4 4 -17 7 -29 7 -11 0 -22 6 -24
13 -3 8 4 11 19 10 22 -3 23 0 20 50 -3 42 -1 52 12 52 9 0 16 8 16 17 0 30
10 7 14 -33z m-1198 -9 c-4 -38 -16 -43 -16 -7 0 18 4 32 9 32 5 0 8 -11 7
-25z m794 15 c0 -5 -8 -10 -17 -10 -15 0 -16 2 -3 10 19 12 20 12 20 0z m3509
-32 c1 -5 -3 -8 -9 -8 -5 0 -10 12 -9 28 0 24 1 25 9 7 5 -11 9 -23 9 -27z
m-3409 22 c0 -5 -10 -10 -22 -9 -22 0 -22 1 -3 9 11 5 21 9 23 9 1 1 2 -3 2
-9z m110 -25 c0 -19 -4 -35 -10 -35 -5 0 -10 16 -10 35 0 19 5 35 10 35 6 0
10 -16 10 -35z m120 25 c0 -5 -4 -10 -10 -10 -5 0 -10 5 -10 10 0 6 5 10 10
10 6 0 10 -4 10 -10z m3111 -3 c-8 -10 -7 -17 1 -25 9 -9 7 -12 -7 -12 -14 0
-20 7 -21 25 -2 19 3 25 18 25 16 0 18 -3 9 -13z m-4314 -19 c-3 -8 -6 -5 -6
6 -1 11 2 17 5 13 3 -3 4 -12 1 -19z m3829 -5 c-10 -10 -19 5 -10 18 6 11 8
11 12 0 2 -7 1 -15 -2 -18z m-4446 2 c0 -8 -7 -15 -15 -15 -16 0 -20 12 -8 23
11 12 23 8 23 -8z m538 -48 c2 -36 0 -47 -12 -47 -16 0 -33 71 -21 90 14 23
30 2 33 -43z m435 33 c-6 -24 -26 -21 -31 3 -2 11 3 17 16 17 15 0 19 -5 15
-20z m1099 -39 c2 -13 -4 -28 -14 -34 -21 -14 -23 -11 -31 30 -5 25 -3 33 11
36 22 5 31 -3 34 -32z m2380 9 c3 -16 1 -35 -4 -42 -9 -15 -9 -14 -12 35 -3
44 10 50 16 7z m-4462 -10 c0 -24 -16 -34 -24 -15 -7 19 3 47 15 39 5 -3 9
-14 9 -24z m4406 -3 c-2 -18 -16 -28 -16 -12 0 3 0 14 0 26 0 11 4 17 10 14 5
-3 8 -16 6 -28z m-3676 3 c0 -13 -5 -18 -15 -14 -8 4 -15 12 -15 20 0 8 7 14
15 14 8 0 15 -9 15 -20z m460 10 c0 -5 -4 -10 -10 -10 -5 0 -10 5 -10 10 0 6
5 10 10 10 6 0 10 -4 10 -10z m945 -10 c3 -5 1 -10 -4 -10 -6 0 -11 5 -11 10
0 6 2 10 4 10 3 0 8 -4 11 -10z m-425 -19 c0 -22 -16 -36 -24 -22 -8 12 3 41
15 41 5 0 9 -9 9 -19z m-1073 -13 c-3 -8 -6 -5 -6 6 -1 11 2 17 5 13 3 -3 4
-12 1 -19z m182 -46 c1 -13 -3 -20 -9 -17 -5 3 -10 25 -9 48 1 36 2 38 9 17 4
-14 8 -35 9 -48z m4315 47 c-12 -13 -20 -16 -22 -9 -3 7 2 16 9 21 25 16 32 9
13 -12z m-5014 2 c0 -12 -20 -25 -27 -18 -7 7 6 27 18 27 5 0 9 -4 9 -9z
m1490 -1 c0 -5 -4 -10 -10 -10 -5 0 -10 5 -10 10 0 6 5 10 10 10 6 0 10 -4 10
-10z m3418 -34 c2 -19 0 -27 -9 -24 -7 2 -14 17 -16 32 -3 20 0 27 9 24 7 -3
14 -17 16 -32z m-4018 3 c0 -5 -4 -9 -10 -9 -5 0 -10 7 -10 16 0 8 5 12 10 9
6 -3 10 -10 10 -16z m3457 -15 c-9 -9 -28 6 -21 18 4 6 10 6 17 -1 6 -6 8 -13
4 -17z m483 3 c0 -14 -6 -24 -15 -24 -9 0 -15 10 -15 24 0 14 6 23 15 23 9 0
15 -9 15 -23z m-4302 -62 c0 -41 -4 -75 -9 -75 -5 0 -9 34 -9 75 0 41 4 75 9
75 5 0 9 -34 9 -75z m92 55 c0 -12 -29 -20 -35 -10 -9 15 4 30 20 23 8 -3 15
-9 15 -13z m965 -20 c0 -18 -6 -35 -12 -37 -9 -3 -13 8 -13 37 0 29 4 40 13
38 6 -3 12 -20 12 -38z m215 28 c0 -4 -8 -8 -17 -8 -17 -1 -17 -1 0 -11 23
-13 22 -29 -3 -29 -15 0 -20 7 -20 29 0 24 4 29 20 28 11 -1 20 -5 20 -9z
m2150 2 c0 -5 -5 -10 -11 -10 -5 0 -7 5 -4 10 3 6 8 10 11 10 2 0 4 -4 4 -10z
m330 0 c0 -5 -4 -10 -10 -10 -5 0 -10 5 -10 10 0 6 5 10 10 10 6 0 10 -4 10
-10z m-2912 -31 c1 -38 -22 -34 -26 4 -2 18 1 27 11 27 9 0 14 -11 15 -31z
m122 21 c0 -5 -4 -10 -10 -10 -5 0 -10 5 -10 10 0 6 5 10 10 10 6 0 10 -4 10
-10z m-1153 -16 c8 -21 -13 -42 -28 -27 -13 13 -5 43 11 43 6 0 13 -7 17 -16z
m113 12 c0 -16 -14 -36 -26 -36 -14 0 -19 22 -7 33 7 8 33 10 33 3z m-227 -21
c-6 -17 -25 -15 -31 3 -2 7 5 12 17 12 14 0 19 -5 14 -15z m4060 -7 c6 -20 -4
-49 -16 -45 -9 3 -13 29 -8 52 2 10 19 5 24 -7z m744 6 c-3 -3 -12 -4 -19 -1
-8 3 -5 6 6 6 11 1 17 -2 13 -5z m-676 -29 c3 -42 -2 -148 -6 -155 -9 -14 -43
1 -48 21 -3 10 -1 37 4 59 5 22 9 43 8 47 -1 5 -1 18 0 30 1 29 40 28 42 -2z
m567 6 c3 -8 -1 -12 -9 -9 -7 2 -15 10 -17 17 -3 8 1 12 9 9 7 -2 15 -10 17
-17z m-4290 -9 c2 -7 -3 -12 -12 -12 -9 0 -16 7 -16 16 0 17 22 14 28 -4z
m4401 -33 c-13 -8 -6 -13 14 -10 4 0 7 -4 7 -10 0 -18 -35 -5 -38 15 -4 20 20
43 27 25 2 -6 -3 -15 -10 -20z m-3541 -9 c3 -7 0 -10 -7 -6 -6 4 -11 2 -11 -5
0 -10 -3 -10 -11 -2 -13 13 -2 36 14 30 6 -2 13 -9 15 -17z m89 -12 c-3 -7 -5
-2 -5 12 0 14 2 19 5 13 2 -7 2 -19 0 -25z m113 18 c0 -9 -9 -14 -20 -13 -11
1 -20 7 -20 14 0 7 9 13 20 13 11 0 20 -6 20 -14z m90 5 c0 -6 -4 -13 -10 -16
-5 -3 -10 1 -10 9 0 9 5 16 10 16 6 0 10 -4 10 -9z m-1550 -11 c0 -5 -7 -10
-15 -10 -8 0 -15 5 -15 10 0 6 7 10 15 10 8 0 15 -4 15 -10z m4273 -10 c3 -11
1 -20 -4 -20 -5 0 -9 9 -9 20 0 11 2 20 4 20 2 0 6 -9 9 -20z m436 -32 c8 -38
9 -54 1 -56 -7 -3 -5 -9 5 -16 22 -16 31 -116 10 -116 -8 0 -15 5 -15 10 0 6
5 10 12 10 7 0 5 7 -5 18 -17 18 -41 108 -32 121 2 5 0 22 -4 39 -9 29 -6 42
9 42 4 0 12 -24 19 -52z m-668 19 c-1 -12 -15 -9 -19 4 -3 6 1 10 8 8 6 -3 11
-8 11 -12z m569 -7 c0 -11 -7 -20 -15 -20 -8 0 -15 5 -15 11 0 5 5 7 10 4 6
-3 10 1 10 9 0 9 2 16 5 16 3 0 5 -9 5 -20z m-4388 -22 c-6 -6 -15 -8 -19 -4
-4 4 -1 11 7 16 19 12 27 3 12 -12z m3818 -34 c0 -15 -6 -24 -16 -24 -13 0
-14 3 -5 14 8 10 9 16 1 21 -6 3 -8 11 -4 16 9 16 24 0 24 -27z m772 10 c-7
-12 -11 -13 -17 -4 -4 7 -2 16 6 21 18 11 23 4 11 -17z m-982 12 c0 -11 -19
-15 -25 -6 -3 5 1 10 9 10 9 0 16 -2 16 -4z m427 -28 c-3 -8 -6 -5 -6 6 -1 11
2 17 5 13 3 -3 4 -12 1 -19z m-310 -95 c-2 -16 -4 -5 -4 22 0 28 2 40 4 28 2
-13 2 -35 0 -50z m333 57 c0 -5 -7 -10 -15 -10 -8 0 -15 5 -15 10 0 6 7 10 15
10 8 0 15 -4 15 -10z m100 -31 c0 -23 -4 -30 -14 -26 -8 3 -17 1 -20 -6 -2 -7
-5 -4 -5 6 -1 9 6 17 15 17 10 0 14 6 11 14 -5 12 0 26 10 26 2 0 3 -14 3 -31z
m-270 -5 c0 -8 -7 -14 -15 -14 -10 0 -15 -10 -15 -30 0 -32 16 -41 23 -12 3
11 5 7 6 -10 1 -21 -3 -26 -19 -25 -17 1 -20 8 -20 58 0 52 2 57 20 52 11 -3
20 -12 20 -19z m670 16 c0 -5 -4 -10 -10 -10 -5 0 -10 5 -10 10 0 6 5 10 10
10 6 0 10 -4 10 -10z m-800 -65 c0 -25 -16 -24 -18 1 -1 15 2 22 8 19 6 -3 10
-12 10 -20z m400 -64 c0 -5 -9 -7 -20 -4 -11 3 -20 7 -20 9 0 2 9 4 20 4 11 0
20 -4 20 -9z m465 -1 c3 -5 1 -10 -4 -10 -6 0 -11 5 -11 10 0 6 2 10 4 10 3 0
8 -4 11 -10z m-735 -12 c0 -4 -9 -8 -20 -8 -11 0 -20 4 -20 8 0 4 9 8 20 8 11
0 20 -4 20 -8z m250 -18 c0 -5 -4 -10 -10 -10 -5 0 -10 5 -10 10 0 6 5 10 10
10 6 0 10 -4 10 -10z m-6154 -269 c-5 -98 -19 -136 -32 -86 -8 34 2 281 13
298 13 20 24 -110 19 -212z m-866 39 c0 -5 -4 -10 -10 -10 -5 0 -10 5 -10 10
0 6 5 10 10 10 6 0 10 -4 10 -10z m6950 -229 c-19 -11 -127 -25 -117 -15 8 8
70 21 107 23 18 0 21 -2 10 -8z m4090 -121 l34 -30 -62 0 c-51 0 -63 3 -72 20
-8 15 -8 21 2 24 7 3 20 7 28 9 27 9 34 7 70 -23z m-8263 14 c-3 -3 -12 -4
-19 -1 -8 3 -5 6 6 6 11 1 17 -2 13 -5z m-2117 -73 c0 -15 -42 -41 -67 -41
-31 0 -29 16 5 34 31 17 62 20 62 7z m8410 -131 c0 -5 -5 -10 -11 -10 -5 0 -7
5 -4 10 3 6 8 10 11 10 2 0 4 -4 4 -10z m-7465 -60 c-3 -5 -10 -10 -16 -10 -5
0 -9 5 -9 10 0 6 7 10 16 10 8 0 12 -4 9 -10z m7222 4 c-3 -3 -12 -4 -19 -1
-8 3 -5 6 6 6 11 1 17 -2 13 -5z m-497 -54 c0 -5 -9 -10 -21 -10 -11 0 -17 5
-14 10 3 6 13 10 21 10 8 0 14 -4 14 -10z m-1285 -50 c3 -5 1 -10 -4 -10 -6 0
-11 5 -11 10 0 6 2 10 4 10 3 0 8 -4 11 -10z m1115 -10 c0 -13 -7 -20 -20 -20
-23 0 -26 10 -8 28 18 18 28 15 28 -8z m-1349 -51 c-20 -8 -25 -4 -17 16 5 13
8 14 20 3 12 -11 12 -14 -3 -19z m-11 -91 c0 -7 -5 -20 -10 -28 -8 -12 -10 -9
-10 13 0 15 5 27 10 27 6 0 10 -6 10 -12z m274 -23 c21 -32 20 -44 -2 -38 -12
3 -22 -4 -30 -21 -7 -16 -20 -26 -32 -26 -27 0 -26 16 2 23 16 5 19 9 11 19
-6 7 -9 25 -6 41 7 34 35 36 57 2z m-146 -23 c6 -14 10 -27 8 -29 -2 -2 -25 0
-52 4 -42 7 -49 12 -52 33 -3 24 -1 25 40 22 35 -3 46 -9 56 -30z m-121 -24
c-3 -8 -6 -5 -6 6 -1 11 2 17 5 13 3 -3 4 -12 1 -19z"/>
<path d="M3098 4836 c-29 -26 -27 -36 8 -36 24 0 50 33 39 50 -9 15 -17 12
-47 -14z"/>
<path d="M3111 4620 c-15 -7 -21 -15 -17 -26 3 -9 6 -21 6 -28 0 -7 14 -22 30
-34 28 -21 33 -22 78 -9 38 11 48 19 50 38 2 19 -5 27 -35 41 -54 24 -84 29
-112 18z"/>
<path d="M11154 4503 c-22 -16 -34 -49 -22 -61 33 -33 124 4 116 46 -3 18 -73
29 -94 15z"/>
<path d="M11302 4499 c-27 -10 -28 -20 -4 -47 35 -41 115 -47 137 -12 20 32
-84 77 -133 59z"/>
<path d="M11222 4343 c4 -24 83 -27 83 -3 0 11 -13 16 -43 18 -38 3 -43 1 -40
-15z"/>
<path d="M9511 4334 c-26 -11 -32 -17 -23 -26 7 -7 12 -20 12 -29 0 -22 6 -26
50 -33 27 -5 41 -1 60 14 l25 20 -24 20 -23 20 26 0 c29 0 35 14 10 24 -27 10
-77 6 -113 -10z"/>
<path d="M11198 4294 c-10 -3 -18 -14 -18 -25 0 -16 4 -19 22 -14 16 6 20 4
15 -8 -4 -12 5 -17 46 -22 30 -4 61 -16 74 -27 l22 -20 7 37 c10 53 -16 76
-92 80 -32 2 -67 2 -76 -1z"/>
<path d="M9434 4135 c4 -17 2 -25 -6 -26 -7 -1 -22 -2 -33 -3 -11 0 -21 -9
-23 -20 -3 -15 0 -18 20 -13 15 4 32 1 44 -8 11 -8 14 -15 7 -15 -7 0 -13 -4
-13 -10 0 -5 16 -10 35 -10 28 0 35 4 35 20 0 25 18 26 36 3 11 -16 13 -16 19
9 9 34 0 48 -25 41 -17 -5 -20 0 -20 26 0 17 -4 31 -10 31 -5 0 -10 -4 -10
-10 0 -5 -7 -10 -15 -10 -8 0 -15 5 -15 10 0 6 -7 10 -16 10 -12 0 -15 -6 -10
-25z"/>
<path d="M10200 3989 c0 -17 27 -45 35 -37 3 3 -3 16 -14 29 -16 19 -20 20
-21 8z"/>
<path d="M10518 3934 c-10 -19 -18 -41 -18 -49 0 -7 8 -14 18 -14 9 1 27 -2
39 -6 19 -6 21 -4 16 15 -5 20 -4 21 15 11 17 -9 19 -8 15 9 -5 19 -50 70 -62
70 -3 0 -14 -16 -23 -36z"/>
<path d="M11133 3958 c-18 -23 -35 -61 -25 -54 6 4 26 -7 45 -24 30 -26 36
-28 41 -14 4 9 5 24 2 33 -2 9 -7 28 -10 44 -7 29 -36 37 -53 15z"/>
<path d="M11473 3940 c-29 -36 -29 -45 3 -46 14 -1 37 -13 51 -25 l25 -24 -7
30 c-23 102 -35 113 -72 65z"/>
<path d="M10670 3948 c0 -4 16 -28 35 -54 19 -25 35 -38 35 -30 0 16 -69 98
-70 84z"/>
<path d="M9132 3867 c-38 -40 -42 -56 -6 -24 23 20 50 57 41 57 -2 0 -17 -15
-35 -33z"/>
<path d="M10282 3857 c-12 -14 -10 -20 38 -78 72 -85 208 -169 241 -148 22 13
29 11 29 -10 0 -11 5 -23 10 -26 6 -3 10 0 10 7 0 7 9 24 20 38 21 27 27 70
10 70 -6 0 -19 -13 -28 -30 -22 -39 -48 -39 -126 3 -72 38 -143 105 -152 144
-10 41 -33 54 -52 30z"/>
<path d="M11571 3774 c0 -11 3 -14 6 -6 3 7 2 16 -1 19 -3 4 -6 -2 -5 -13z"/>
<path d="M10704 3748 c1 -18 -3 -45 -7 -60 -12 -45 9 -32 31 19 22 51 20 73
-7 73 -13 0 -17 -8 -17 -32z"/>
<path d="M10230 3729 c0 -26 27 -55 39 -43 8 7 4 17 -14 34 -18 17 -25 19 -25
9z"/>
<path d="M11598 3691 c-6 -43 7 -68 39 -74 33 -6 54 8 25 17 -12 4 -26 22 -32
41 -15 46 -27 51 -32 16z"/>
<path d="M8435 3537 c33 -30 77 -56 130 -78 44 -17 89 -42 100 -54 26 -29 104
-50 112 -29 7 19 -4 45 -18 42 -6 -2 -15 9 -19 24 -5 15 -18 41 -30 57 -17 25
-24 28 -35 18 -8 -7 -10 -16 -4 -21 17 -19 9 -28 -18 -21 -16 3 -71 26 -123
49 -144 66 -154 67 -95 13z"/>
<path d="M10710 3527 c0 -33 4 -57 10 -57 7 0 8 19 4 53 -9 70 -14 72 -14 4z"/>
<path d="M11318 3556 c45 -59 123 -115 122 -88 -1 6 -74 68 -123 102 -21 15
-21 14 1 -14z"/>
<path d="M11662 3540 c-7 -11 -20 -20 -30 -20 -11 0 -17 -8 -17 -25 0 -19 5
-25 22 -25 26 0 45 31 41 66 -3 24 -3 24 -16 4z"/>
<path d="M11798 3483 c6 -2 18 -2 25 0 6 3 1 5 -13 5 -14 0 -19 -2 -12 -5z"/>
<path d="M10750 3461 c0 -18 67 -33 90 -21 12 6 20 13 18 14 -10 9 -108 15
-108 7z"/>
<path d="M10195 3390 c3 -5 15 -10 26 -10 11 0 17 5 14 10 -3 6 -15 10 -26 10
-11 0 -17 -4 -14 -10z"/>
<path d="M9044 3249 c8 -41 46 -79 46 -46 0 15 45 57 60 57 6 0 10 5 10 10 0
6 -27 10 -61 10 l-61 0 6 -31z"/>
<path d="M9860 3260 c0 -5 5 -10 10 -10 6 0 10 5 10 10 0 6 -4 10 -10 10 -5 0
-10 -4 -10 -10z"/>
<path d="M9300 3252 c0 -4 9 -18 19 -31 19 -24 36 -16 25 12 -5 15 -44 31 -44
19z"/>
<path d="M8716 3231 c-4 -5 0 -11 6 -14 10 -3 10 -8 -1 -21 -10 -12 -11 -20
-3 -28 6 -6 9 -25 6 -42 -5 -30 -5 -30 10 -11 20 24 20 125 0 125 -7 0 -15 -4
-18 -9z"/>
<path d="M9025 3200 c-7 -12 22 -70 35 -70 14 0 12 16 -5 50 -17 32 -21 35
-30 20z"/>
<path d="M7930 3170 c1 -9 26 -39 36 -42 5 -2 19 7 31 19 l21 21 -44 4 c-24 2
-44 1 -44 -2z"/>
<path d="M8208 3093 c6 -2 18 -2 25 0 6 3 1 5 -13 5 -14 0 -19 -2 -12 -5z"/>
<path d="M8700 3070 c0 -5 5 -10 10 -10 6 0 10 5 10 10 0 6 -4 10 -10 10 -5 0
-10 -4 -10 -10z"/>
<path d="M9020 2957 c-30 -15 -37 -42 -15 -51 25 -9 55 12 55 39 0 28 -5 30
-40 12z"/>
<path d="M8450 2918 c8 -8 60 -28 115 -43 55 -16 105 -32 111 -37 12 -9 74 0
74 12 0 3 -35 15 -77 24 -106 24 -205 48 -223 54 -13 4 -13 3 0 -10z"/>
<path d="M9588 2823 c7 -3 16 -2 19 1 4 3 -2 6 -13 5 -11 0 -14 -3 -6 -6z"/>
<path d="M8455 2790 c-8 -13 20 -24 40 -16 8 3 15 10 15 16 0 13 -47 13 -55 0z"/>
<path d="M8595 2770 c-25 -11 1 -11 35 0 20 6 21 8 5 8 -11 0 -29 -3 -40 -8z"/>
<path d="M8395 2759 c-26 -4 -31 -7 -14 -8 14 0 30 -6 37 -13 9 -9 13 -7 18 6
8 22 6 23 -41 15z"/>
<path d="M8450 2750 c0 -5 9 -10 20 -10 11 0 20 5 20 10 0 6 -9 10 -20 10 -11
0 -20 -4 -20 -10z"/>
<path d="M8416 4521 c-3 -5 8 -11 25 -15 44 -8 51 -8 47 5 -5 14 -65 22 -72
10z"/>
<path d="M5208 4229 c-20 -11 -17 -72 4 -92 21 -22 40 -21 67 1 21 16 21 19 7
53 -16 38 -50 54 -78 38z"/>
<path d="M5367 4223 c-3 -5 -8 -22 -11 -38 -6 -26 -2 -34 23 -53 35 -26 63
-29 55 -7 -5 11 1 15 25 15 31 0 44 23 19 33 -10 4 -10 8 1 15 10 8 8 13 -10
26 -24 16 -94 22 -102 9z"/>
<path d="M5266 4031 c-4 -5 -3 -16 0 -24 8 -22 -12 -30 -29 -12 -20 20 -27 19
-27 -3 0 -23 19 -42 35 -36 6 3 18 -2 25 -11 14 -17 56 -20 65 -5 3 6 24 10
46 10 28 0 39 4 39 15 0 11 -7 14 -24 9 -13 -3 -34 0 -46 6 -20 11 -21 13 -5
30 15 16 14 18 -5 23 -11 3 -23 1 -26 -4 -3 -5 -13 -5 -24 1 -11 6 -21 6 -24
1z"/>
<path d="M5468 3642 c-50 -50 -90 -102 -86 -111 4 -14 104 69 117 97 23 49 9
55 -31 14z"/>
<path d="M5097 3631 c-21 -36 -21 -37 -1 -45 10 -4 23 3 34 16 24 30 30 22 37
-47 l6 -58 19 37 c23 44 17 68 -20 87 -15 8 -31 20 -35 26 -12 19 -21 16 -40
-16z"/>
<path d="M5533 3606 c-13 -6 -23 -14 -23 -19 0 -17 -93 -137 -121 -158 -23
-16 -38 -19 -64 -15 -38 8 -44 -2 -50 -81 -1 -26 -7 -49 -11 -50 -5 -2 -16 -8
-24 -14 -13 -9 -13 -11 -1 -16 11 -4 8 -10 -9 -23 -22 -16 -41 -88 -21 -75 5
3 12 1 16 -5 10 -17 35 -11 35 8 0 24 41 62 67 62 11 0 27 -9 34 -20 23 -33
54 -15 97 59 44 74 59 124 66 228 2 39 12 85 21 102 8 17 14 30 13 30 -2 -1
-13 -6 -25 -13z m-173 -226 c0 -5 -7 -10 -15 -10 -8 0 -15 5 -15 10 0 6 7 10
15 10 8 0 15 -4 15 -10z m-10 -49 c0 -5 -9 -11 -19 -14 -14 -3 -18 -1 -14 9 6
15 33 19 33 5z"/>
<path d="M5040 3523 c-1 -10 -30 -40 -67 -68 -89 -68 -123 -122 -123 -196 0
-31 7 -70 15 -85 8 -16 15 -39 15 -52 0 -28 17 -62 30 -62 5 0 17 14 25 31 11
21 32 37 66 51 l49 21 -2 146 c-2 122 0 152 14 180 10 18 15 37 12 42 -9 16
-34 10 -34 -8z m-110 -179 c-16 -32 -30 -66 -30 -75 0 -8 -6 -24 -14 -35 -13
-17 -14 -13 -11 40 3 52 8 63 41 97 21 21 39 37 41 35 2 -1 -10 -29 -27 -62z"/>
<path d="M5142 3353 c-21 -143 -24 -193 -13 -193 5 0 12 19 15 43 7 56 16 227
12 227 -2 0 -8 -35 -14 -77z"/>
<path d="M5620 3271 c0 -5 7 -14 15 -21 16 -14 18 -10 9 14 -6 17 -24 22 -24
7z"/>
<path d="M5670 3210 c0 -5 5 -10 10 -10 6 0 10 5 10 10 0 6 -4 10 -10 10 -5 0
-10 -4 -10 -10z"/>
<path d="M5480 2910 c-27 -17 14 -22 51 -6 l34 14 -35 1 c-19 0 -42 -3 -50 -9z"/>
<path d="M1335 4316 c-16 -12 -52 -44 -79 -69 -27 -26 -63 -51 -80 -55 -17 -5
-32 -16 -34 -25 -4 -19 19 -22 49 -7 15 9 19 7 19 -6 0 -12 21 3 63 44 92 91
113 105 147 100 41 -6 39 17 -1 31 -42 14 -49 13 -84 -13z"/>
<path d="M1136 4274 c-34 -55 -36 -63 -30 -114 4 -39 14 -63 32 -82 14 -16 29
-28 34 -28 19 0 6 36 -24 67 -30 31 -31 34 -19 73 6 22 25 55 41 74 25 28 28
35 16 51 -12 16 -16 12 -50 -41z"/>
<path d="M1625 3799 c-10 -15 3 -25 16 -12 7 7 7 13 1 17 -6 3 -14 1 -17 -5z"/>
<path d="M1400 3503 c1 -10 7 -29 15 -43 8 -14 14 -38 15 -53 0 -18 4 -26 11
-21 20 12 -10 134 -33 134 -4 0 -8 -8 -8 -17z"/>
<path d="M8462 4231 c-8 -5 -12 -22 -10 -42 3 -32 6 -34 43 -37 47 -3 90 21
65 37 -8 6 -11 13 -7 17 23 24 -58 46 -91 25z"/>
<path d="M8380 4054 c0 -7 5 -16 10 -19 23 -14 7 -26 -30 -23 -21 2 -40 -1
-42 -7 -4 -12 100 -22 167 -15 52 5 65 20 45 50 -9 13 -12 13 -21 -2 -16 -27
-42 -23 -35 5 5 22 3 23 -44 24 -35 0 -50 -3 -50 -13z"/>
<path d="M8423 3963 c18 -5 18 -5 0 -19 -17 -13 -17 -13 3 -14 13 0 24 8 27
20 4 16 0 20 -21 19 -19 -1 -21 -3 -9 -6z"/>
<path d="M2890 3973 c0 -13 5 -23 10 -23 6 0 10 -7 10 -16 0 -8 5 -12 10 -9
14 9 12 16 -10 45 l-20 25 0 -22z"/>
<path d="M1977 3766 c-32 -71 -33 -79 -10 -97 9 -8 14 -9 10 -2 -4 6 2 37 14
67 30 82 20 107 -14 32z"/>
<path d="M4022 3785 c-16 -34 -16 -33 14 -29 34 3 41 11 28 31 -16 26 -30 26
-42 -2z"/>
<path d="M4200 3754 c-7 -21 -37 -73 -67 -117 -30 -43 -53 -81 -51 -83 7 -7
25 13 50 56 30 51 96 124 118 132 13 4 12 8 -4 27 -26 29 -33 27 -46 -15z"/>
<path d="M4116 3531 c-7 -10 16 -21 44 -21 10 0 20 -9 23 -20 4 -14 14 -20 35
-20 48 0 48 19 0 39 -58 25 -96 33 -102 22z"/>
<path d="M3957 3480 c-24 -19 -26 -19 -30 -3 -3 10 -5 2 -6 -16 l-1 -35 35 34
c19 19 35 35 35 37 0 7 -8 2 -33 -17z"/>
<path d="M4134 3463 c-3 -10 -10 -28 -15 -41 -13 -34 -11 -37 10 -18 11 10 24
31 30 47 8 23 7 29 -5 29 -8 0 -17 -8 -20 -17z"/>
<path d="M4414 3376 c-3 -8 -19 -16 -35 -20 -29 -6 -29 -6 -14 -30 9 -14 15
-38 13 -53 -4 -39 29 -43 62 -8 39 41 34 125 -7 125 -7 0 -16 -6 -19 -14z"/>
<path d="M4090 3365 c-11 -13 -25 -16 -67 -13 -45 4 -53 2 -53 -13 0 -9 7 -20
16 -23 25 -10 72 -7 79 4 4 6 15 8 25 5 23 -7 29 3 21 34 -6 22 -7 23 -21 6z"/>
<path d="M4110 3260 c0 -5 5 -10 10 -10 6 0 10 5 10 10 0 6 -4 10 -10 10 -5 0
-10 -4 -10 -10z"/>
<path d="M3840 3240 c0 -5 5 -10 10 -10 6 0 10 5 10 10 0 6 -4 10 -10 10 -5 0
-10 -4 -10 -10z"/>
<path d="M8621 2234 c0 -11 3 -14 6 -6 3 7 2 16 -1 19 -3 4 -6 -2 -5 -13z"/>
<path d="M7860 1684 c0 -8 5 -12 10 -9 6 3 10 10 10 16 0 5 -4 9 -10 9 -5 0
-10 -7 -10 -16z"/>
<path d="M12342 4403 c-7 -3 -19 -18 -27 -34 -13 -25 -13 -28 0 -23 9 4 24
-10 45 -42 16 -26 30 -52 30 -56 0 -20 113 -235 134 -256 28 -29 96 -41 113
-20 17 20 30 103 15 94 -7 -4 -12 -20 -12 -35 0 -47 -43 -69 -71 -35 -7 9 -22
20 -34 24 -11 4 -26 18 -32 31 -123 259 -138 303 -93 279 29 -16 45 -13 30 5
-26 31 -85 72 -98 68z"/>
<path d="M12657 4154 c-4 -4 -7 -16 -7 -27 0 -14 5 -17 16 -13 9 4 22 2 29 -4
20 -17 147 -23 157 -7 14 22 8 35 -19 41 -58 11 -168 17 -176 10z"/>
<path d="M6655 4047 c-18 -11 -16 -13 25 -17 l45 -6 -42 -13 c-38 -13 -60 -41
-32 -41 6 0 17 -7 26 -15 15 -16 54 -11 61 6 2 5 10 9 17 9 22 0 25 14 13 48
-8 21 -20 32 -41 36 -40 8 -49 7 -72 -7z"/>
<path d="M6860 4024 c-14 -37 -13 -40 21 -62 30 -19 75 -19 63 -1 -3 5 4 9 15
9 38 0 32 20 -11 40 -24 11 -35 20 -25 20 9 0 17 5 17 10 0 6 -16 10 -35 10
-29 0 -37 -5 -45 -26z"/>
<path d="M6958 4033 c7 -3 16 -2 19 1 4 3 -2 6 -13 5 -11 0 -14 -3 -6 -6z"/>
<path d="M13045 4012 c-2 -2 3 -15 11 -30 8 -15 14 -33 14 -39 0 -24 18 -13
40 23 12 19 19 38 15 42 -7 7 -74 10 -80 4z"/>
<path d="M12840 3922 c0 -26 33 -51 54 -40 23 13 21 31 -3 19 -16 -9 -20 -7
-25 14 -7 29 -26 34 -26 7z"/>
<path d="M6771 3866 c-9 -11 -6 -12 14 -8 14 2 25 8 25 13 0 14 -26 11 -39 -5z"/>
<path d="M6840 3870 c0 -5 7 -10 15 -10 8 0 15 5 15 10 0 6 -7 10 -15 10 -8 0
-15 -4 -15 -10z"/>
<path d="M12150 3844 c0 -25 4 -32 15 -28 29 11 31 57 3 59 -14 1 -18 -6 -18
-31z"/>
<path d="M12768 3852 c-34 -21 -37 -52 -6 -52 17 0 81 17 96 26 2 1 -3 11 -10
23 -15 25 -42 26 -80 3z"/>
<path d="M12950 3850 c-8 -5 -11 -12 -7 -16 4 -4 15 0 24 9 18 18 8 23 -17 7z"/>
<path d="M6780 3840 c0 -4 10 -11 23 -15 18 -6 13 -9 -27 -17 -42 -8 -51 -7
-59 7 -7 13 -12 14 -23 4 -11 -9 -12 -15 -3 -25 8 -10 40 -14 120 -14 90 0
109 -3 109 -15 0 -21 17 -19 23 3 2 9 8 25 12 35 7 16 2 17 -61 12 -61 -6 -67
-5 -51 8 25 21 22 24 -23 24 -22 0 -40 -3 -40 -7z"/>
<path d="M6818 3763 c6 -2 18 -2 25 0 6 3 1 5 -13 5 -14 0 -19 -2 -12 -5z"/>
<path d="M6803 3709 c14 -8 22 -8 30 0 8 8 3 11 -18 11 -26 -1 -28 -2 -12 -11z"/>
<path d="M6661 3661 c-18 -12 -7 -45 38 -106 49 -68 78 -90 115 -86 17 1 36 7
41 11 6 5 26 12 45 17 43 11 62 45 68 122 4 50 3 54 -14 47 -11 -4 -47 -15
-82 -23 -56 -14 -68 -15 -115 -1 -29 8 -59 18 -67 22 -8 3 -21 2 -29 -3z"/>
<path d="M6638 3507 c-16 -13 -28 -26 -28 -29 0 -3 27 -8 61 -10 59 -3 60 -3
38 15 -13 10 -27 24 -33 32 -9 12 -16 10 -38 -8z"/>
<path d="M6971 3491 l-24 -19 21 -11 c24 -13 52 -15 52 -3 0 17 -13 52 -19 52
-3 0 -17 -9 -30 -19z"/>
<path d="M6601 3440 c-1 -28 60 -121 92 -140 18 -11 48 -20 67 -19 l35 0 -39
15 c-72 26 -106 54 -131 108 -13 28 -24 44 -24 36z"/>
<path d="M7120 3446 c0 -2 7 -7 16 -10 8 -3 12 -2 9 4 -6 10 -25 14 -25 6z"/>
<path d="M7033 3373 c-5 -1 -20 -4 -36 -7 l-27 -6 20 -22 c11 -12 18 -28 16
-35 -3 -8 10 -14 40 -19 25 -3 51 -13 59 -20 7 -8 20 -14 27 -14 10 0 9 3 -2
10 -12 8 -11 10 8 10 12 0 22 -5 22 -11 0 -5 5 -7 11 -3 10 6 8 -18 -4 -56 -1
-3 2 -7 7 -10 6 -3 14 10 18 28 5 18 15 35 23 39 8 3 15 16 15 29 0 15 6 24
15 24 27 0 16 21 -20 36 -48 20 -65 17 -35 -6 24 -18 24 -20 8 -37 -17 -16
-18 -16 -18 4 0 11 -7 23 -15 27 -8 3 -15 14 -15 24 0 15 -8 18 -55 18 -30 -1
-58 -2 -62 -3z"/>
<path d="M7065 3150 c3 -5 13 -10 21 -10 8 0 14 5 14 10 0 6 -9 10 -21 10 -11
0 -17 -4 -14 -10z"/>
<path d="M6250 3095 c0 -31 10 -31 33 0 18 25 18 25 -8 25 -20 0 -25 -5 -25
-25z"/>
<path d="M7127 3061 c-3 -11 2 -26 10 -32 12 -11 13 -8 7 17 -9 37 -10 39 -17
15z"/>
<path d="M6230 3046 c0 -8 5 -18 10 -21 6 -3 10 3 10 14 0 12 -4 21 -10 21 -5
0 -10 -6 -10 -14z"/>
<path d="M7386 3015 c24 -18 31 -18 37 -1 4 9 -4 13 -25 14 -28 1 -29 0 -12
-13z"/>
<path d="M6678 2763 c6 -2 18 -2 25 0 6 3 1 5 -13 5 -14 0 -19 -2 -12 -5z"/>
<path d="M6755 2716 c17 -7 45 -18 63 -25 17 -7 32 -17 32 -22 0 -5 24 -9 53
-9 l52 1 -40 15 c-88 34 -233 70 -160 40z"/>
<path d="M6620 2707 c0 -7 12 -20 26 -27 22 -12 27 -12 34 0 15 23 6 35 -28
38 -22 2 -32 -1 -32 -11z"/>
<path d="M7195 2381 c-6 -5 -53 -32 -107 -59 -67 -35 -114 -53 -155 -58 -51
-6 -55 -8 -34 -17 21 -10 23 -16 19 -59 -3 -27 -7 -50 -9 -51 -2 -2 -48 -1
-101 1 l-98 4 0 54 c0 31 4 54 11 54 5 0 8 4 5 9 -9 13 -79 21 -92 10 -9 -7
-27 -4 -61 9 -26 11 -70 25 -98 32 -27 7 -58 15 -68 17 -35 11 -6 -25 35 -42
22 -9 38 -18 35 -21 -3 -3 -21 2 -41 10 -19 8 -38 11 -41 7 -6 -11 13 -27 49
-41 20 -7 26 -14 19 -21 -6 -6 -19 -6 -37 1 -36 13 -43 8 -57 -43 -19 -66 -14
-536 7 -720 15 -135 16 -176 5 -363 -12 -201 -12 -214 7 -280 11 -38 27 -100
35 -139 9 -38 29 -127 45 -197 25 -106 28 -134 20 -168 -8 -29 -7 -44 1 -54 6
-7 9 -20 5 -29 -3 -8 -1 -18 4 -21 7 -4 6 -18 0 -39 -9 -29 -6 -42 14 -86 14
-28 21 -54 17 -57 -32 -20 16 -24 265 -24 l274 0 17 51 c14 40 15 56 6 76 -9
19 -8 27 4 40 29 28 44 70 70 194 29 134 76 288 118 384 17 38 27 78 27 110 0
28 9 128 20 223 13 112 18 204 15 260 -37 609 -65 870 -97 909 -5 7 -7 21 -3
33 4 12 2 20 -5 20 -7 0 -9 8 -5 19 3 11 1 22 -5 26 -6 4 -8 15 -5 26 7 20
-13 27 -30 10z m5 -40 c0 -12 -20 -25 -27 -18 -7 7 6 27 18 27 5 0 9 -4 9 -9z
m-95 -57 c-25 -18 -154 -59 -162 -51 -3 4 3 9 13 12 10 4 48 19 84 34 65 28
100 30 65 5z m105 6 c0 -5 -7 -10 -16 -10 -8 0 -12 5 -9 10 3 6 10 10 16 10 5
0 9 -4 9 -10z m10 -46 c0 -8 -5 -12 -10 -9 -6 4 -8 11 -5 16 9 14 15 11 15 -7z
m-540 -4 c0 -5 -2 -10 -4 -10 -3 0 -8 5 -11 10 -3 6 -1 10 4 10 6 0 11 -4 11
-10z m425 1 c-13 -11 -134 -51 -154 -51 -9 0 20 13 64 29 90 32 103 35 90 22z
m10 -41 c-7 -12 -130 -50 -159 -49 -11 0 17 13 64 29 98 32 103 33 95 20z
m-484 -22 c22 -6 39 -15 39 -19 0 -8 -87 15 -98 25 -9 10 18 7 59 -6z"/>
<path d="M205 2249 c-16 -6 -70 -10 -118 -9 -87 1 -88 1 -85 -22 3 -22 7 -23
68 -20 36 2 76 10 88 19 20 12 29 13 54 2 44 -18 310 -15 366 4 42 15 41 23
-5 23 -21 0 -105 3 -188 7 -94 4 -161 3 -180 -4z"/>
<path d="M6790 2206 c0 -7 7 -19 16 -27 13 -10 17 -10 25 2 15 25 10 39 -16
39 -15 0 -25 -6 -25 -14z"/>
<path d="M13430 2182 c0 -10 70 -25 79 -17 7 8 -2 13 -41 20 -23 4 -38 3 -38
-3z"/>
<path d="M870 890 c-9 -6 -10 -10 -3 -10 6 0 15 5 18 10 8 12 4 12 -15 0z"/>
<path d="M8180 810 c0 -5 5 -10 10 -10 6 0 10 5 10 10 0 6 -4 10 -10 10 -5 0
-10 -4 -10 -10z"/>
<path d="M5418 522 c0 -4 -2 -11 -3 -17 -1 -5 -5 -19 -9 -30 -22 -58 -27 -75
-39 -135 -15 -74 -33 -86 -59 -42 -13 22 -16 45 -13 95 l4 65 -31 11 c-22 8
-35 8 -42 1 -13 -13 -29 -13 -21 0 8 12 -54 38 -77 32 -14 -3 -18 -15 -18 -58
0 -29 -5 -56 -10 -59 -6 -4 -8 -10 -5 -15 11 -18 -21 -78 -66 -122 -26 -27
-52 -48 -58 -48 -6 0 -11 -4 -11 -10 0 -5 7 -10 16 -10 28 0 4 -19 -68 -55
-74 -36 -94 -41 -100 -26 -8 23 -43 15 -56 -12 -12 -25 -12 -31 4 -48 10 -11
12 -19 6 -19 -7 0 -12 -4 -12 -10 0 -13 194 -13 275 0 129 20 231 22 264 6 36
-19 176 -21 236 -2 38 11 40 14 43 54 l3 42 -73 1 c-60 0 -69 2 -50 11 15 8
21 17 16 30 -4 14 0 18 21 18 14 0 35 4 45 10 15 8 19 5 25 -18 l7 -27 18 23
c16 19 17 28 8 55 -6 18 -17 39 -24 48 -11 12 -12 23 -4 45 5 16 8 63 7 104
l-2 74 -72 22 c-40 12 -74 19 -75 16z m-255 -49 c-7 -2 -21 -2 -30 0 -10 3 -4
5 12 5 17 0 24 -2 18 -5z m-33 -204 c0 -5 -7 -9 -15 -9 -15 0 -20 12 -9 23 8
8 24 -1 24 -14z m264 -103 c-3 -13 -1 -27 5 -30 17 -11 13 -46 -5 -46 -8 0
-12 5 -9 10 3 6 -1 10 -10 10 -19 0 -40 43 -32 64 4 9 18 16 32 16 22 0 25 -3
19 -24z"/>
</g>
</svg>
